<?xml version="1.0" encoding="utf-8"?>
<!-- Generator: Adobe Illustrator 18.0.0, SVG Export Plug-In . SVG Version: 6.00 Build 0)  -->
<!DOCTYPE svg PUBLIC "-//W3C//DTD SVG 1.1//EN" "http://www.w3.org/Graphics/SVG/1.1/DTD/svg11.dtd">
<svg version="1.1" id="Layer_1" xmlns="http://www.w3.org/2000/svg" xmlns:xlink="http://www.w3.org/1999/xlink" x="0px" y="0px"
	 viewBox="0 0 360 322.3" enable-background="new 0 0 360 322.3" xml:space="preserve">
<g>
	<path fill="#FFFFFF" d="M44.5,59.3H51v-12h12v12h18.7v12H63v21l2.1,2.2h6.4l2.2-2.2v-3.9h12v8.3l-9.2,9.8H60.2L51,96.9V71.4h-6.4
		V59.3z"/>
	<path fill="#FFFFFF" d="M129.4,106.6l-3.2-3.4l-3.2,3.4h-22.7L91,96.9V64.2h12v28.1l2.1,2.2H118l2.2-2.2V64.2h12v28.1l2.2,2.2h12.8
		l2.1-2.2V64.2h12v32.6l-9.2,9.7H129.4z"/>
	<path fill="#FFFFFF" d="M168.4,47.3h12v12h-12V47.3z M180.5,106.6h-12V64.3h12V106.6z"/>
	<path fill="#FFFFFF" d="M185.7,59.3h6.4v-12h12v12h18.7v12h-18.7v21l2.1,2.2h6.4l2.2-2.2v-3.9h12v8.3l-9.2,9.8h-16.3l-9.2-9.7V71.4
		h-6.4V59.3z"/>
	<path fill="#FFFFFF" d="M262.3,64.2l9.2,9.7v8.4h-12v-3.9l-2.2-2.2h-12.8l-2.1,2.2v13.9l2.1,2.2h12.8l2.2-2.2v-3.9h12v8.3l-9.2,9.9
		h-22.7l-9.2-9.8V74l9.2-9.7H262.3z"/>
	<path fill="#FFFFFF" d="M277,47.3h12v17h19.9l9.2,9.7v32.6h-12V78.5l-2.1-2.2h-12.8l-2.2,2.2v28.1h-12V47.3z"/>
	<path fill="#FFFFFF" d="M128.7,135.6l7.8,8.2v19.3l-7.8,8.2h-16.8v14.3h-10.2v-41.8l7.8-8.2H128.7z M111.9,159.3l1.9,1.9h10.8
		l1.8-1.9v-11.7l-1.8-1.9h-10.8l-1.9,1.9V159.3z"/>
	<path fill="#FFFFFF" d="M151.1,171.3h-10.2v-50.1h10.2V171.3z"/>
	<path fill="#FFFFFF" d="M163.3,171.3l-7.8-8.2v-19.3l7.8-8.2h19.2l7.8,8.2v27.5H163.3z M165.7,159.3l1.9,1.9h12.6v-13.6l-1.8-1.9
		h-10.8l-1.9,1.9V159.3z"/>
	<path fill="#FFFFFF" d="M207.1,171.3l-12.3-8.5v-27.2H205v21.7l7.2,5.1l7.2-5.1v-21.7h10.2v27.2l-12.3,8.5v14.3h-10.2V171.3z"/>
	<path fill="#FFFFFF" d="M234.2,143.8l7.8-8.2h19.2l7.8,8.2v3.8h-10.2l-1.9-1.9h-10.8l-1.8,1.9l24.6,6.4v9.1l-7.8,8.2H242l-7.8-8.2
		v-3.8h10.2l1.9,1.9H257l1.8-1.9l-24.6-6.9V143.8z"/>
</g>
<g>
	<path fill="#FFFFFF" d="M47,240.7v-1.8c0-2-0.5-3.6-1.4-4.9c-0.9-1.2-2.2-2.5-3.7-3.7c-0.5-0.4-0.9-0.7-1.3-0.9
		c-0.4-0.2-0.7-0.4-1.1-0.6c-0.3-0.2-0.7-0.3-1.1-0.5c-0.4-0.2-0.8-0.4-1.3-0.7c-1.3-0.9-2.5-1.6-3.5-2.2c-1-0.6-2.3-1.2-3.7-2
		c-0.6-0.3-1.2-0.5-1.9-0.6c-0.7-0.1-1.3-0.2-1.9-0.3c-0.6-0.1-1.1-0.3-1.5-0.6c-0.4-0.3-0.6-0.7-0.6-1.3c0-0.7,0.2-1.3,0.6-1.7
		c0.4-0.5,0.8-0.9,1.4-1.2c0.6-0.3,1.2-0.5,1.9-0.7c0.7-0.1,1.4-0.2,2.1-0.2c0.5,0,1,0.1,1.3,0.4c0.3,0.3,0.7,0.6,1,0.9
		c0.3,0.3,0.6,0.6,1,0.9c0.3,0.3,0.8,0.4,1.4,0.4c0.6,0,1.1-0.1,1.6-0.4c0.5-0.3,0.9-0.7,1.3-1.1c0.3-0.5,0.6-1,0.8-1.6
		c0.2-0.6,0.3-1.1,0.3-1.7c0-1-0.1-1.9-0.4-2.5c-0.3-0.7-0.8-1.3-1.5-1.9c-0.9-0.7-1.8-1-2.6-1.1c-0.8,0-1.8,0-2.9,0
		c-1.7,0-3.2,0.3-4.4,0.9c-1.2,0.6-2.5,1.3-3.9,2.2c-0.7,0.4-1.3,0.8-2,1.3c-0.6,0.4-1.2,0.9-1.7,1.3c-0.5,0.5-0.9,1-1.2,1.6
		c-0.3,0.6-0.4,1.3-0.4,2.2c0,0.1,0,0.3-0.1,0.4c-0.1,0.2-0.1,0.4-0.1,0.7c0,0.2,0,0.4-0.1,0.5c-0.1,0.1-0.1,0.3-0.1,0.5
		c0,0.4-0.1,0.7,0,1c0.1,0.3,0,0.6,0,1v2c0,0.8,0.4,1.3,1,1.7c0.6,0.3,1.2,0.7,1.6,1.3c0.2,0.4,0.5,0.8,0.7,1c0.2,0.3,0.5,0.6,0.8,1
		c0.6,0.4,1.1,0.6,1.6,0.7c0.4,0,1,0.2,1.5,0.4c0.4,0.3,0.7,0.6,0.9,0.9c0.2,0.3,0.4,0.6,0.9,0.8c0.5,0.4,1,0.6,1.5,0.7
		c0.5,0,1.1,0.2,1.6,0.4c0.3,0.1,0.5,0.3,0.6,0.6c0.1,0.3,0.3,0.4,0.5,0.6c0.8,0.4,1.6,0.8,2.4,1.2c0.8,0.4,1.6,0.8,2.3,1.2
		c0.7,0.4,1.3,0.9,1.7,1.5c0.4,0.6,0.7,1.3,0.7,2.1c0,0.1,0,0.2-0.1,0.2c-0.1,0-0.1,0.2-0.1,0.4c0,0.6,0.2,1.1,0.5,1.7
		c0.3,0.6,0.5,1.2,0.5,1.8c0,1.1-0.2,2-0.6,2.8c-0.4,0.7-1,1.5-1.6,2.1c-1.1,1.3-2.4,2.4-3.8,3.2c-1.4,0.8-2.9,1.2-4.6,1.2
		c-0.8,0-1.7-0.1-2.5-0.3c-0.8-0.2-1.6-0.5-2.3-0.9c-0.7-0.4-1.2-0.9-1.6-1.4c-0.4-0.6-0.6-1.2-0.6-2c0-0.1,0-0.3,0.1-0.4
		c0.1-0.2,0.1-0.3,0.1-0.4c0-0.3-0.1-0.5-0.2-0.7c-0.2-0.2-0.2-0.5-0.2-0.9c0-0.2,0-0.4,0.1-0.6c0.1-0.2,0.1-0.4,0.1-0.7
		c0-0.9-0.4-1.6-1.3-2c-0.9-0.4-1.9-0.7-2.9-0.7c-1.6,0-3,0.6-4.2,1.7c-1.2,1.1-1.7,2.5-1.7,4c0,1.1,0.2,1.8,0.5,2.3
		c0.3,0.5,0.7,1.2,1.1,2.1c0.3,0.6,0.5,1.1,0.6,1.6c0.1,0.5,0.4,0.9,1,1.2c0.6,0.6,1.1,0.9,1.7,1.1c0.5,0.1,1.1,0.4,1.7,0.7
		c0.6,0.4,1.1,0.7,1.4,1.1c0.4,0.3,0.8,0.5,1.4,0.5c0.6,0.1,1.1,0.1,1.5,0.1c0.4,0,1,0.1,1.5,0.3c0.4,0.1,0.8,0.2,1,0.4
		c0.2,0.2,0.6,0.3,1,0.3c0.7,0,1.3-0.1,1.7-0.2c0.4-0.2,1.1-0.2,1.9-0.2c0.3,0,0.6,0,0.9,0.1c0.3,0.1,0.6,0.1,1.1,0.1
		c0.4,0,0.8-0.1,1-0.4c0.3-0.2,0.6-0.4,1-0.5c1.1-0.3,2-0.5,2.8-0.8c0.8-0.2,1.7-0.6,2.7-1.2c0.6-0.3,1.2-0.6,1.6-0.9
		c0.4-0.3,0.9-0.5,1.3-0.8c0.4-0.3,0.8-0.6,1.3-0.9c0.4-0.3,0.9-0.7,1.3-1.1c0.4-0.5,0.9-0.9,1.3-1.1c0.5-0.2,0.8-0.7,1-1.3
		c0.3-0.3,0.3-0.6,0.2-0.9c-0.1-0.3-0.1-0.6,0-1.1c0.4-0.9,0.9-1.7,1.3-2.4c0.4-0.7,0.7-1.6,0.7-2.7c0-0.7-0.1-1.3-0.3-1.8
		C47.1,241.9,47,241.4,47,240.7z"/>
	<path fill="#FFFFFF" d="M62.1,220.3c0.3-1.3,0.5-2.4,0.8-3.4c0.2-1,0.4-1.6,0.4-1.7l0.9-3.5c0-0.2,0.1-0.6,0.2-1.1
		c0.1-0.5,0.3-1.1,0.5-1.7c0.2-0.6,0.3-1.1,0.5-1.7c0.1-0.5,0.2-0.9,0.2-1.1c0.4-1.1,1-2.1,1.6-3.1c0.6-1,1.5-1.7,2.6-2.4
		c0.4-0.4,0.9-0.7,1.3-0.8c0.4-0.1,1-0.1,1.5-0.1c0.4,0,0.8,0,1.3-0.1c0.4-0.1,0.8-0.3,1.2-0.6c1.1-1,2-2,2.9-2.9
		c0.7-0.7,1.4-1.5,2.1-2.2s1-1.3,1-1.7c0-0.5-0.1-1.2-0.3-2.1c-0.2-0.8-0.6-1.7-1-2.5c-0.5-0.8-1.1-1.5-1.8-2.1
		c-0.7-0.6-1.7-0.9-2.8-0.9c-1.2,0.4-2.2,0.8-3.2,1.3c-0.8,0.4-1.7,0.7-2.5,1.1c-0.8,0.5-1.4,1.1-1.9,1.1c-0.2,0-0.4,0-0.6,0
		c-0.2,0-0.4,0.3-0.5,0.4c-0.2,0.1-0.4,0.3-0.6,0.3c-0.2,0-0.4,0.1-0.5,0.1c-0.6,0.2-1,0.6-1.2,1c-0.2,0.4-0.4,0.9-0.6,1.4
		c-0.1,0.5-0.3,0.9-0.4,1.4c-0.1,0.4-0.4,0.7-0.7,0.9c-0.2,0.2-0.5,0.6-1,1.3c-0.4,0.7-0.8,1.4-1.3,2.2c-0.4,0.8-0.8,1.6-1.2,2.3
		c-0.3,0.8-0.5,1.3-0.6,1.7l-0.2,2.2c-0.2,0.7-0.3,1.7-0.7,2.9c-0.4,1.2-0.4,2.6-0.4,4.1v4.8c0,0.4-0.2,0.9-0.4,1.6
		c-0.2,0.7-0.4,1.4-0.6,2.1c-0.2,0.7-0.5,1.3-0.6,1.9c-0.2,0.6-0.3,0.9-0.3,1.1v1.6c0,0.1,0,0.2,0,0.3c-0.1,0.1-0.1,0.2-0.1,0.3
		c-0.3,0.1-0.6,0.2-0.6,0.4c0,0.1-0.3,0.3-0.3,0.5v2.2c0,0.4,0.1,0.7,0,1.1c-0.1,0.3-0.1,0.7-0.2,1c-0.1,0.4-0.1,0.8-0.3,1.2
		c0,0.7-0.1,1.8-0.4,3.3c-0.3,1.4-0.7,2.9-1.1,4.4c-0.4,1.5-1,2.9-1.3,4.1c-0.3,1.2-0.7,1.9-0.7,2.1v7.5c0,0.3,0.3,0.8,0.3,1.4
		c0,0.6,0.3,1.2,0.5,1.8c0.2,0.6,0.6,1.1,1,1.5c0.4,0.4,1,0.6,1.8,0.6c0.4,0,1-0.2,1.6-0.6c0.6-0.4,1.1-0.9,1.6-1.6
		c0.3-1,0.6-2.1,0.8-3.3c0.2-1.2,0.4-2.4,0.6-3.6c0.2-1.2,0.4-2.5,0.6-3.7c0.2-1.2,0.5-2.4,0.8-3.5c0.9-1.9,1.9-3.6,3-5.3
		s2.6-3.2,4.5-4.6c0.7-0.4,1.2-0.8,1.4-1.1c0.2-0.3,0.4-0.4,0.8-0.4c0.5,0,1,0.2,1.4,0.5c0.4,0.3,0.7,0.7,1,1.1
		c0.3,0.4,0.3,0.8,0.4,1.2c0.1,0.4,0,0.7,0,1v3.1c0,1.1-0.1,2.1-0.5,3.1c-0.4,0.9-0.9,2.1-1.7,3.5c-0.4,0.8-0.6,1.6-0.9,2.3
		s-0.9,1.5-1.9,2.3c-0.4,0.3-0.9,0.8-1.6,1.5c-0.7,0.7-1.4,1.3-2.2,2c-0.2,0.2-0.4,0.5-0.8,1c-0.4,0.4-0.7,0.9-1.1,1.4
		c-0.3,0.5-0.7,1-1,1.5c-0.3,0.5-0.4,1-0.4,1.3c0,0.6,0.2,1,0.5,1.3c0.3,0.3,0.7,0.5,1.1,0.6c0.4,0.1,0.8,0.1,1.3,0.1
		c0.4,0,0.7-0.1,0.9-0.1h2.9h0.9c0.7,0,1.3-0.1,1.8-0.6c0.5-0.5,0.9-1,1.3-1.6c0.3-0.7,0.7-1.3,1-1.9c0.3-0.7,0.7-1.2,1-1.5
		c0.7-0.8,1.3-1.7,1.8-2.8c0.5-1.1,0.8-2,1-2.8c0.3-0.3,0.6-0.7,0.8-1.2c0.2-0.5,0.5-0.9,0.8-1.2c0.3-0.4,0.6-1,0.9-1.8
		c0-0.7-0.1-1.2,0.1-1.5c0.1-0.2,0.1-0.7,0.1-1.4v-1.5c0-0.3,0.3-0.6,0.4-0.9c0.1-0.3,0.3-0.5,0.3-0.8c0.1-0.2,0.1-0.4,0.1-0.6
		c0-0.7,0-1.6-0.1-2.6c-0.1-1-0.1-1.7-0.1-2l0.2-2.7c0-0.2,0-0.7-0.1-1.7c-0.1-1-0.2-2-0.4-3.1c-0.2-1.1-0.6-1.9-1.1-2.8
		c-0.5-0.9-1.3-1.1-2.3-1.1h-1.3c-0.4,0-0.9-0.1-1.5,0.3c-0.6,0.3-1.2,0.6-1.9,1.1c-0.6,0.5-1.2,1-1.8,1.5c-0.6,0.5-1,0.9-1.3,1.2
		c-1.1,0.7-2.1,1.5-3,2.3c-0.9,0.8-1.7,1.2-2.3,1.2c-0.3,0-0.5-0.2-0.6-0.6c-0.1-0.2-0.1-0.4-0.1-0.6c0-0.5,0.1-1.4,0.3-2.6
		C61.6,222.8,61.8,221.5,62.1,220.3z"/>
	<path fill="#FFFFFF" d="M110.8,244.7c0.2-0.2,0.4-0.5,0.6-1l0.3-0.6c0-0.3-0.1-0.6-0.3-0.9c-0.2-0.3-0.5-0.4-0.8-0.4
		c-0.5,0.5-1,0.9-1.4,1.3c-0.4,0.4-0.8,0.8-1.3,1.1c-0.4,0.4-0.8,0.7-1.1,1l-1.1,1.7c-0.4,0-0.7-0.1-0.9-0.4c-0.2-0.3-0.4-0.6-0.4-1
		c-0.1-0.4-0.3-0.8-0.3-1.2c0-0.4-0.2-0.7-0.2-0.8v-3.1v-4.2c0-0.3,0-0.8,0-1.5c0-0.7,0.5-1.2,0.9-1.5c0.3-0.7,0.6-1.3,0.7-1.8
		c0.1-0.4,0.1-0.9,0.1-1.3c0.2-0.5,0.4-1.2,0.7-2.1c0.3-0.9,0.5-1.8,0.8-2.7c0.2-0.9,0.4-1.7,0.6-2.4c0.2-0.7,0.2-1.2,0.2-1.4
		c0-1.1-0.2-2-0.7-2.6c-0.5-0.6-1.3-1.1-2.4-1.1l-1.5,0.5H102h-2.2c-0.4,1-0.9,0.8-1.4,1.2c-0.5,0.3-0.9,0.6-1.2,0.6
		c-0.8,0.4-1.5,0.8-2.1,0.9c-0.6,0.1-1.3,0.3-1.9,0.6c-0.6,0.2-1.3,0.6-1.9,1c-0.6,0.4-1.3,1.1-2,2.1c-1.4,2.1-2.9,3.8-4.4,5.2
		c-0.4,0.4-0.7,1-1.1,1.6c-0.3,0.7-0.6,1.3-0.9,2c-0.3,0.7-0.5,1.3-0.6,1.9c-0.2,0.6-0.2,1-0.2,1.1l-1.1,9.3l0.2,5.7
		c0,0.3,0.1,0.8,0.2,1.5c0.1,0.7,0.3,1.4,0.6,2.1c0.3,0.7,0.6,1.3,1.1,1.9c0.5,0.5,1.1,0.8,1.8,0.8c0.4,0,0.8-0.1,1.3-0.4
		c0.5-0.3,0.9-0.6,1.3-1c0.4-0.4,0.8-0.8,1.1-1.2c0.3-0.4,0.6-0.7,0.8-0.9c0.5-0.5,1.2-1.4,2.1-2.6c0.8-1.2,1.7-2.4,2.5-3.6
		c0.8-1.2,1.5-2.2,2.2-3.2c0.6-0.9,1-1.4,1.2-1.4s0.2,0,0.4,0.1c0.4,0.1,0.4,0.3,0.4,0.6v1.6v2.9c0,0.7,0.1,1.5-0.1,2.3
		c-0.2,0.8-0.2,1.6-0.4,2.5c-0.2,0.9-0.2,1.8-0.2,2.7c0,0.9,0.2,1.9,0.5,2.8c0.3,0.6,0.6,0.9,1.1,0.9c0.4,0,0.9-0.1,1.3-0.4
		c0.4-0.3,0.7-0.7,1-1.2c0.3-0.5,0.4-1,0.4-1.5l1.7-2.5c0.6-1,1.3-1.8,2-2.5c0.7-0.7,1.4-1.5,2.1-2.2c0.7-0.7,1.3-1.5,1.9-2.2
		C110,246.7,110.5,245.7,110.8,244.7z M97.9,230.3c-0.1,0.8-0.1,1.3-0.1,1.5c0,0.3-0.3,1.1-0.8,2.4c-0.6,1.3-1.2,2.7-2.1,4.3
		c-0.8,1.5-1.7,2.9-2.6,4.1c-0.9,1.2-1.7,1.8-2.4,1.8c-0.7,0-1.3-0.3-1.5-0.9c-0.3-0.6-0.5-1.3-0.6-2.1c-0.1-0.8-0.1-1.5-0.1-2.2
		c0.1-0.7,0.1-1.2,0.1-1.5c0-0.5,0.2-1.3,0.6-2.2c0.4-0.9,0.9-1.9,1.5-3c0.6-1.1,1.4-2.1,2.2-3.1c0.8-1,1.7-1.9,2.7-2.7
		c1-0.7,1.7-0.9,2.2-0.5c0.4,0.3,0.7,0.9,0.9,1.7C97.9,228.7,98,229.5,97.9,230.3z"/>
	<path fill="#FFFFFF" d="M144,242.3h-0.7c-0.6,0-1.1,0.1-1.4,0.7c-0.4,0.6-0.8,1-1.4,1.3c-0.3,0.3-0.5,0.6-0.7,1
		c-0.2,0.4-0.4,0.8-0.6,1.1c-0.2,0.3-0.4,0.6-0.7,0.9c-0.2,0.2-0.5,0.3-0.8,0.3c-1,0-1.8-0.4-2.5-1.2c-0.7-0.8-1.3-1.7-1.8-2.8
		c-0.5-1.1-0.8-2.1-1.1-3.2c-0.2-1.1-0.4-1.9-0.4-2.6c0.1-0.5,0.3-1.2,0.8-2c0.4-0.8,1-1.7,1.5-2.6c0.6-0.9,1.1-1.8,1.5-2.7
		c0.5-0.9,0.7-1.8,0.8-2.6c0-0.2-0.1-0.6-0.4-1.3c-0.3-0.7-0.6-1.4-1.1-2.2c-0.4-0.8-1-1.5-1.6-2.1c-0.6-0.6-1.3-1-2-1
		c-1-0.1-1.9,0.2-2.8,0.8c-0.9,0.6-1.7,1.2-2.4,1.9c-0.7,0.7-1.3,1.4-1.9,1.9c-0.6,0.6-1,0.8-1.3,0.8c-0.2,0-0.4-0.1-0.6-0.4
		c-0.2-0.2-0.3-0.5-0.5-0.8c-0.1-0.3-0.2-0.6-0.2-1c0-0.3,0-0.6,0-0.8c0-0.7,0-1.4,0.3-2.3c0.3-0.8,1-1.8,1-2.8v-1.6
		c1-1.7,1-3.6,1.5-5.4c0.5-1.9,1.3-3.7,2.2-5.6l0.7-1.5c0.3-1.3,0.8-2.2,1.6-2.9c0.8-0.7,1.7-1.3,2.7-1.7c1-0.5,2.1-0.9,3.3-1.3
		c1.1-0.4,2.2-1,3.2-1.7c0.2,0,0.4-0.2,0.6-0.6c0.3-0.4,0.5-0.8,0.8-1.3c0.2-0.5,0.4-1,0.6-1.5c0.2-0.5,0.2-0.8,0.2-1
		c0.1-0.4,0.2-0.6,0.2-0.8c0-0.1,0-0.4,0-0.8c0.2-0.8,0.2-1.6-0.1-2.3c-0.3-0.7-0.7-1.2-1.3-1.7c-0.6-0.4-1.3-0.8-2-1.1
		c-0.8-0.3-1.5-0.4-2.3-0.5c-0.4,0-0.8,0.1-1.2,0.2c-0.4,0.2-0.8,0.4-1.3,0.6c-0.3,0.1-0.7,0.2-1,0.4c-0.4,0.2-0.8,0.2-1.2,0.2
		c-0.9,0.2-1.7,0.5-2.3,1.1c-0.7,0.6-1.2,1.2-1.7,1.9c-0.5,0.7-0.9,1.4-1.3,2.2c-0.3,0.7-0.6,1.3-0.8,1.8c-1.2,2.8-2.4,5.5-3.5,8
		c-1.1,2.5-1.8,5.2-2.3,8.1l-0.9,5.3c-0.1,0.7-0.5,1.5-0.8,2.2c-0.3,0.7-0.8,1.3-0.8,1.7v2.9c0,0.8,0.1,1.4,0,1.9
		c-0.1,0.5-0.3,1.1-0.6,1.8c0,0.4,0,0.8-0.1,1.2c-0.1,0.4-0.1,1.2-0.1,2.3l-0.2,8.3c-0.4,0.4-0.7,0.7-0.7,1.1
		c-0.1,0.3-0.1,0.7-0.1,1.2c-0.1,0.8-0.1,1.4-0.1,1.9c0,0.5,0,1.1-0.1,1.9c-0.1,1.8-0.4,3.2-1,4.2c-0.6,1-1.3,1.9-2.1,2.5
		c-0.8,0.7-1.5,1.3-2.1,1.8c-0.6,0.6-0.9,1.3-0.9,2.2c-0.1,0.6,0.1,1,0.5,1.2c0.4,0.2,0.8,0.4,1.4,0.5s1.1,0.2,1.7,0.2
		c0.6,0,1.1,0,1.5,0.1c0.3,0,0.7-0.1,1.1-0.4s0.8-0.4,1.1-0.4c0.3,0.2,0.6,0.2,1,0.3c0.6,0.3,1.3,0.2,2.1,0.2h2.2
		c0.3,0,0.9,0.4,1.8,0.7c0.9,0.3,1.5,0.5,1.9,0.6c0.2,0,0.4,0,0.8-0.1c0.3-0.1,0.7-0.2,1-0.4c0.3-0.2,0.6-0.4,0.8-0.7
		c0.2-0.3,0.4-0.6,0.4-1c0.1-1.4-0.2-2.4-0.9-3c-0.7-0.6-1.5-1-2.4-1.2c-1-0.3-1.9-0.7-2.7-1.3c-0.8-0.5-1-1.5-1-2.9v-2.4
		c0-0.2,0.1-0.5,0.2-1c0.1-0.5,0.2-1,0.3-1.4c0.2-0.5,0.4-0.9,0.6-1.3c0.3-0.4,0.6-0.6,0.9-0.6c0.9,0.1,1.7,0.4,2.3,1.1
		c0.7,0.7,1.2,1.5,1.7,2.3c0.5,0.9,0.9,1.8,1.2,2.7s0.6,1.7,0.7,2.2c0.3,0.8,0.7,1.7,1.1,2.8c0.4,1.1,0.9,2.1,1.5,3
		c0.6,1,1.3,1.8,2.1,2.5c0.8,0.7,1.8,1,2.9,1c0.3,0.1,0.7-0.2,1.2-0.8c0.5-0.6,1.1-1.3,1.8-2.2c0.7-0.9,1.3-1.9,2-3
		c0.7-1.1,1.3-2.1,1.9-3.1c0.6-1,1-1.9,1.4-2.7c0.4-0.8,0.6-1.3,0.6-1.6c0-0.1,0-0.3,0.1-0.6c0.1-0.3,0.1-0.6,0.1-0.9
		c0-0.3,0-0.4-0.1-0.7C144.3,242.3,144.2,242.3,144,242.3z M128,232.9c-0.3,0.7-0.8,1.3-1.3,1.9c-0.5,0.6-1.1,1.1-1.7,1.5
		c-0.6,0.4-1.2,0.6-1.6,0.5c-0.5,0-0.9-0.1-1.2-0.3c-0.3-0.2-0.5-0.5-0.6-0.8c-0.1-0.3-0.2-0.7-0.2-1c0-0.4,0-0.7,0-1
		c0.1-1.4,0.6-2.6,1.6-3.6c1-1,2.2-1.4,3.7-1.3c0.3,0,0.7,0.2,1.1,0.7c0.4,0.4,0.6,1,0.6,1.5C128.5,231.7,128.3,232.3,128,232.9z"/>
	<path fill="#FFFFFF" d="M164.5,245.8c0-0.7-0.1-1.1-0.4-1.2c-0.3-0.1-0.6-0.2-1-0.2c-0.2-0.1-0.5,0-1,0.2c-0.4,0.2-1.1,0.5-1.9,0.9
		c-0.2,0.2-0.5,0.4-1,0.7c-0.4,0.3-0.9,0.6-1.3,0.9c-0.4,0.3-0.9,0.5-1.2,0.8c-0.4,0.2-0.6,0.3-0.6,0.2c-0.7,0-1.2-0.4-1.7-1.3
		c-0.5-0.9-0.4-1.8-0.4-2.7v-3.3c0-1.3,0.2-2.4,0.9-3.3c0.7-0.8,1.4-1.6,2.4-2.2c1-0.6,2-1.2,3.1-1.7c1.1-0.5,2.2-1.1,3.2-1.8
		c1.1-0.6,2.2-1.4,3.2-2.3c1.1-0.9,1.6-2,1.6-3.4c0.1-1,0-2-0.2-2.9c-0.2-0.9-0.6-1.7-1-2.4c-0.5-0.7-1.1-1.2-1.9-1.6
		c-0.8-0.4-1.7-0.6-2.8-0.6c-1-0.1-2.2,0.1-3.6,0.8c-1.4,0.6-2.8,1.4-4.2,2.4c-1.3,1-2.5,2.1-3.5,3.4c-1,1.2-1.6,2.4-1.7,3.6
		l-1.1,2.6c-0.2,0.4-0.3,0.7-0.5,1.1c-0.3,0.7-0.4,1.3-0.4,2c-0.2,0.3-0.3,0.6-0.3,0.8c0,0.2,0,0.4,0.1,0.6c0.1,0.2,0.1,0.3,0.1,0.5
		c0,0.2-0.1,0.3-0.3,0.5c-0.1,0.3-0.1,1-0.3,1.9c-0.1,1-0.3,2-0.4,3.1c-0.2,1.1-0.2,2.1-0.3,3c-0.1,0.9,0,1.5,0,1.7v1.3l-0.4,1.6
		c0.1,0.2,0.1,0.3,0.2,0.6c0.2,0.4,0.2,0.8,0.2,1.2v1.3c0,0.4,0.1,0.8,0.3,1.3c0.2,0.5,0.5,1,0.9,1.5c0.4,0.5,0.9,0.9,1.4,1.3
		c0.5,0.4,1,0.6,1.5,0.6c0.8,0,1.6,0,2.3-0.1c0.8-0.1,1.6-0.5,2.5-1.3c0.3-0.3,1-0.8,2-1.5c1-0.7,2-1.5,3.1-2.4c1.1-0.9,2-1.9,2.9-3
		C163.8,248.1,164.3,247,164.5,245.8z M156,230.2c0.1-0.3,0.1-0.6,0.2-1c0.1-0.3,0.2-0.6,0.2-0.9c0.3-0.6,0.5-1.2,0.8-1.8
		c0.3-0.5,0.5-0.9,0.8-1.3c0.3-0.4,0.5-0.6,0.8-0.6l1.3,0.2c0.3,0.1,0.6,0.2,0.8,0.4c0.2,0.1,0.5,0.3,0.6,0.5
		c0.2,0.2,0.3,0.4,0.3,0.7v1.3c0,0.5-0.4,1-0.8,1.5c-0.4,0.4-1,0.8-1.5,1.2c-0.6,0.3-1.1,0.6-1.6,0.7c-0.5,0.2-0.9,0.2-1.2,0.2
		c-0.3,0-0.5-0.1-0.6-0.3C156,230.7,156,230.5,156,230.2z"/>
	<path fill="#FFFFFF" d="M185.1,250.3c1-1.5,1.4-2.9,1.4-4.3c0-1.6-0.1-3.1-0.4-4.4c-0.3-1.3-0.6-2.5-1.1-3.6
		c-0.4-1.1-0.9-2-1.4-2.8c-0.5-0.8-0.9-1.6-1.3-2.3c-0.3-0.5-0.6-1-0.8-1.6c-0.2-0.6-0.3-1.2-0.3-1.8c0-0.6,0.1-1.3,0.3-1.9
		c0.2-0.6,0.6-1.2,1-1.6c0.3-0.4,1-0.7,2-1c1-0.3,2.1-0.6,3.1-1c1.1-0.3,2-0.7,2.9-1.1c0.8-0.4,1.3-0.9,1.3-1.5c0-0.7-0.3-1.3-1-2.1
		s-1.3-1-2.1-1H187c-0.4,0-1.1-0.1-2-0.1c-0.9,0.1-1.6,0.2-2,0.6c-0.4,0.1-0.7,0.3-1.1,0.7c-0.3,0.4-0.7,0.8-1.2,1.2
		c-0.3,0.4-0.7,0.9-1.1,1.3c-0.4,0.5-0.8,0.8-1.2,1c-0.7,0.2-1.4,0.5-2.1,1.1c-0.6,0.6-1.2,1.3-1.7,2.1c-0.5,0.8-1.2,1.7-1.6,2.6
		c-0.4,1-0.1,1.9-1.1,2.8v0.9c0,0.8,0.5,1.8,1.2,3c0.7,1.2,1.6,2.5,2.4,3.8c0.8,1.3,1.7,2.7,2.3,4c0.7,1.3,1.1,2.4,1.1,3.3
		c0,0.4-0.1,0.8-0.2,1.3c-0.2,0.5-0.4,1-0.7,1.4c-0.3,0.4-0.7,0.8-1.1,1.2c-0.4,0.3-0.9,0.5-1.5,0.5c-0.8,0-1.5-0.1-2.1-0.4
		c-0.6-0.2-1.2-0.5-1.7-0.8c-0.5-0.3-0.9-0.5-1.3-0.8c-0.4-0.2-0.6-0.4-0.8-0.4c-0.6,0-1.3,0.3-2.1,0.9c-0.8,0.6-1.5,1.2-2.3,2
		c-0.7,0.7-1.3,1.5-1.8,2.3c-0.5,0.8-0.7,1.6-0.7,2c0,1.4,0.7,2.4,2.2,2.4h1.7h0.5c0.6-1,1.1-0.4,1.7-0.5c0.4-0.1,0.8-0.3,1.3-0.3
		c0.4-0.1,0.8-0.2,1-0.2h2.9c0.7,0,1.3-0.1,1.7-0.1c0.4-0.1,0.9-0.3,1.4-0.5c0.5-0.2,1-0.6,1.7-1c0.6-0.4,1.5-0.9,2.7-1.6
		C182.9,253,184.1,251.7,185.1,250.3z"/>
	<path fill="#FFFFFF" d="M216,224.4c-0.2-1-0.6-1.9-1-2.7c-0.4-0.8-1-1.2-1.8-1.2c-0.7,0-1.7,0.5-2.9,1.6c-1.2,1.1-2.4,2.2-3.6,3.5
		c-1.2,1.3-2.4,2.4-3.5,3.5c-1.1,1.1-1.9,1.6-2.4,1.6l-0.7-1.1c0-0.3,0.2-0.8,0.5-1.6s0.8-1.5,1.2-2.3c0.5-0.8,0.9-1.5,1.3-2.1
		c0.4-0.7,0.7-1.1,0.9-1.3c0.2-0.5,0.5-1.2,0.9-2c0.4-0.9,0.7-1.8,1.1-2.7c0.4-1,0.9-2.1,1.3-3.3c0-0.4-0.2-0.7-0.5-1.1
		c-0.3-0.4-0.7-0.7-1.1-1c-0.4-0.3-0.8-0.5-1.2-0.7c-0.4-0.2-0.7-0.3-0.8-0.3c-0.4,0-0.9,0.1-1.4,0.3c-0.2,0.1-0.4,0.2-0.7,0.3
		c-0.7,1.7-1.5,3.3-2.6,4.7c-1,1.5-2.1,2.9-3.3,4.3c-1.2,1.4-2.3,2.8-3.4,4.2c-1.1,1.4-2.1,2.8-2.9,4.3c-0.7,1-1.4,1.9-2.1,2.8
		c-0.7,0.9-1,1.8-1,2.9c-0.1,0.2-0.1,0.3,0,0.4c0.1,0.1,0.1,0.2,0.2,0.3c0.1,0.1,0.2,0.1,0.5,0.2c0.6,0,1.5-0.6,2.7-1.7
		c0.5-0.4,1-0.8,1.4-1.2c0.4-0.4,0.8-0.6,1.2-0.6c1,0,1.5,0.5,1.5,1.5l-0.2,4.4c-0.2,0.4-0.4,0.8-0.6,1.4c-0.2,0.6-0.3,1.2-0.5,1.7
		c-0.2,0.7-0.4,1.4-0.6,2.1c-0.1,0.6-0.1,1.2-0.2,1.8c-0.1,0.6-0.1,1.2-0.1,1.8c0,0.6-0.1,1.3-0.1,2.1c0,0.4-0.1,0.9-0.2,1.3
		c-0.2,0.5-0.3,0.9-0.6,1.3c-0.2,0.4-0.4,0.8-0.6,1.2c-0.2,0.3-0.2,0.6-0.2,0.8l-0.2,2.2l-0.9,5.1l-0.9,2.2c0,2,0,3.4-0.1,4.3
		c-0.1,0.9-0.1,1.5-0.1,1.9c0,0.2-0.1,0.4-0.2,0.6c-0.1,0.2-0.2,0.5-0.3,0.8c-0.2,0.3-0.3,0.6-0.4,0.9c-0.4,1.4-0.7,2.6-0.9,3.7
		c-0.3,1-0.7,1.9-0.8,2.7c-0.2,0.9-0.4,1.4-0.4,1.6v0.7c0,0.2,0.1,0.5-0.1,1c-0.1,0.5-0.2,1-0.3,1.6c-0.1,0.2-0.1,0.4-0.1,0.6
		c-0.2,0.3-0.3,0.6-0.4,0.9c0,0.1-0.1,0.5-0.2,1.3c0,0.1,0,0.1,0,0.2c0,0.1-0.1,0.2-0.1,0.3l0.1,0c-0.1,0.6-0.3,1.3-0.4,2.1
		c-0.2,1-0.3,1.9-0.4,2.8c-0.1,0.9-0.1,1.6-0.1,2l1.2,2.2c0.2,0.2,0.4,0.4,0.6,0.6c0.5,0.4,0.8,0.6,1.1,0.6c0.8-0.1,1.5-0.2,2.1-0.4
		c0.6-0.1,1.2-0.3,1.7-0.6c0.5-0.2,1-0.5,1.4-0.8c0.2-0.7,0.5-1.4,0.6-2.3c0.2-0.9,0.3-1.7,0.4-2.7c0.1-0.9,0.1-1.8,0.2-2.7
		c0-0.8,0-1.6-0.1-2.2c0.2-0.6,0.4-1.3,0.3-2l0.4-1.8c0.1-1.1,0.2-2,0.2-2.7s0-1.3,0-1.7c0-0.3,0.1-0.6,0.2-0.8
		c0.1-0.2,0.2-0.5,0.3-0.8c0.1-0.3,0.2-0.7,0.3-1.3c0.1-0.5,0.1-1.3,0.2-2.2c0-1.2,0-2.1,0.2-2.8c0.1-0.7,0.2-1.3,0.4-1.9
		c0.1-0.6,0.2-1.1,0.3-1.6c0.1-0.5,0.2-1.1,0.2-1.9v-1.6c0-1.2,0-2.1,0.4-2.9c0.4-0.8,1-1.5,1.8-2.1c0.7-0.6,1.6-1.2,2.4-1.7
		c0.9-0.5,1.7-1.2,2.5-1.9c0.7-1.1,1.6-2,2.6-2.7c1.1-0.7,2-1.3,2.7-2c0.7-0.6,1.4-1.3,2.1-2c0.7-0.7,1.3-1.5,1.9-2.4
		c0.2-0.2,0.4-0.7,0.9-1.5c0.4-0.9,0.9-1.8,1.3-2.9c0.5-1.1,0.9-2.1,1.3-3.2c0.4-1.1,0.6-1.9,0.7-2.5c-0.1-0.1-0.2-0.2-0.2-0.4
		c-0.1-0.1-0.1-0.2-0.1-0.4c0-0.2,0.1-0.4,0.3-0.5c0.1-0.7,0.3-1.6,0.5-2.5c0.2-0.9,0.4-1.5,0.4-1.9c0-0.2,0-0.7-0.1-1.6
		C216.4,226.3,216.2,225.4,216,224.4z M208.5,241.1c-0.1,0.2-0.2,0.7-0.6,1.4c-0.5,0.4-0.9,0.8-1.3,1.2c-0.4,0.4-0.8,0.7-1.2,1
		c-0.7,0.8-1.5,1.6-2.1,2.2c-0.6,0.6-1.2,1.1-1.8,1.5c-0.6,0.4-1.1,0.6-1.4,0.6c-1.1-0.1-1.7-0.4-1.9-1c-0.2-0.5-0.2-1-0.2-1.4v-2.2
		c1-1.4,1.1-2.8,1.5-4c0.4-1.2,1-2.6,1.8-4.2c0-0.2,0.2-0.5,0.6-0.9c0.4-0.4,0.9-0.9,1.5-1.4c0.6-0.5,1.2-0.9,1.8-1.3
		c0.6-0.4,1.1-0.6,1.5-0.6c0.4,0.1,0.6,0.3,0.8,0.6c0.2,0.3,0.3,0.7,0.3,1.1c0.1,0.4,0,0.8,0,1.2c0,0.4,0,0.7,0,0.8v1.6
		c0,0.3,0.2,0.6,0.3,0.9c0.1,0.3,0.1,0.5,0.2,0.8c0.1,0.2,0.1,0.4,0.1,0.6C208.5,240.3,208.5,240.8,208.5,241.1z"/>
	<path fill="#FFFFFF" d="M247.2,226.4c0.6-1.2,0.8-2.2,0.8-2.9c-0.1-0.6-0.3-1.4-0.6-2.4c-0.3-1-0.9-1.8-1.9-2.4
		c-0.2,0-0.5,0-0.9-0.1c-0.4-0.1-0.8,0-1.1,0.1l-2.5,0.6c-0.5,0.4-1,1.1-1.6,2.1c-0.6,1.1-1.2,2.1-1.7,3.3c-0.6,1.1-1.2,2.1-1.8,3
		c-0.6,0.9-1.2,1.4-1.7,1.5c-0.2,0.1-0.3,0.1-0.5,0c-0.2-0.1-0.4-0.3-0.5-0.4c-0.2-0.2-0.4-0.4-0.5-0.6c-0.1-0.4-0.1-1,0.1-1.6
		c0.2-0.7,0.3-1.2,0.3-1.7c-0.2-0.6-0.3-1.3-0.2-2c0.1-0.3,0.1-0.6,0.2-0.9c0-0.6-0.2-1.1-0.6-1.5c-0.4-0.4-0.9-0.8-1.5-1.1
		c-0.7-0.3-1.1-0.6-1.3-0.9c-0.2-0.3-0.6-0.3-1.2-0.2c-1,0.1-1.7,0.4-2.3,0.9c-0.6,0.5-1.2,1.1-1.6,1.8c-0.5,0.7-1,1.5-1.4,2.3
		c-0.5,0.8-1,1.6-1.7,2.3c-0.5,0.4-1,0.8-1.6,1.2c-0.6,0.4-1.1,0.8-1.5,1.2c-0.5,0.4-0.8,0.8-1.1,1.3c-0.3,0.4-0.3,0.9-0.2,1.4
		c0.1,0.4,0.2,0.9,0.3,1.4c0.1,0.5,0.4,0.8,0.8,0.8c0.8-0.1,1.3-0.3,1.7-0.6c0.3-0.3,0.6-0.6,0.9-0.9c0.3-0.3,0.6-0.6,1-0.9
		c0.4-0.3,1-0.5,1.8-0.7c0.4-0.1,0.8-0.2,1.2-0.2c0.4,0,0.7,0.3,1,1l0.6,5.2c-0.4,1.9-0.8,3.8-1.2,5.8c-0.4,1.9-1.1,3.8-2.3,5.5
		c0,0.1-0.1,0.5-0.3,1.3c-0.2,0.7-0.4,1.6-0.6,2.5c-0.2,0.9-0.4,1.8-0.6,2.7c-0.2,0.9-0.2,1.5-0.2,1.9l1.1,2.2
		c0.2,0.2,0.3,0.4,0.6,0.6c0.4,0.4,0.8,0.6,1,0.6c0.7-0.1,1.4-0.2,2.1-0.3c0.6-0.1,1.1-0.3,1.7-0.5c0.5-0.2,1-0.4,1.3-0.7
		c0.3-0.6,0.5-1.4,0.7-2.2c0.2-0.8,0.4-1.7,0.5-2.6c0.1-0.9,0.2-1.8,0.3-2.6c0.1-0.8,0.1-1.5,0-2.2c0.3-0.7,0.5-1.5,0.4-2.3
		c0-0.8,0.1-1.6,0.4-2.3c0.3-0.7,0.6-1.4,1.2-1.9c0.5-0.6,0.9-1,1.3-1.4c0-1.2,0.3-2.5,0.8-3.9c0.5-1.4,1.2-2.7,2.1-3.8
		c0.6-0.6,1.2-1.1,1.8-1.7c0.6-0.5,1.3-0.8,1.9-0.8c0.3,0,0.6,0,0.8,0c0.2,0,0.5,0.1,0.8,0.2c0.2,0.1,0.4,0.2,0.5,0.2
		c0.1,0,0.3,0,0.6,0c0.3-0.1,0.6-0.2,1-0.4c0.3-0.1,0.7-0.3,1-0.5C246,228.7,246.7,227.7,247.2,226.4z"/>
	<path fill="#FFFFFF" d="M252,240.9c0-1.3,0.6-2.4,1.3-3.3c0.7-0.8,1.6-1.6,2.6-2.2c1-0.6,2.1-1.2,3.2-1.7c1.1-0.5,2.2-1.1,3.2-1.8
		c1.1-0.6,2.2-1.4,3.3-2.3c1.1-0.9,1.6-2,1.6-3.4c0.1-1,0-2-0.2-2.9c-0.2-0.9-0.6-1.7-1-2.4c-0.5-0.7-1.1-1.2-1.9-1.6
		c-0.8-0.4-1.7-0.6-2.8-0.6c-1-0.1-2.2,0.1-3.6,0.8c-1.4,0.6-2.8,1.4-4.2,2.4c-1.3,1-2.5,2.1-3.5,3.4c-1,1.2-1.6,2.4-1.7,3.6
		l-1.1,2.6c-0.2,0.4-0.3,0.7-0.5,1.1c-0.3,0.7-0.4,1.3-0.4,2c-0.2,0.3-0.3,0.6-0.3,0.8c0,0.2,0,0.4,0.1,0.6c0.1,0.2,0.1,0.3,0.1,0.5
		c0,0.2-0.1,0.3-0.3,0.5c-0.1,0.3-0.1,1-0.3,1.9c-0.1,1-0.3,2-0.4,3.1c-0.2,1.1-0.5,2.1-0.6,3c-0.1,0.9-0.4,1.5-0.4,1.7v1.3l0,1.6
		c0.1,0.2,0.4,0.3,0.5,0.6c0.2,0.4,0.5,0.8,0.5,1.2v1.3c0,0.4,0,0.8,0.2,1.3c0.2,0.5,0.5,1,0.9,1.5c0.4,0.5,0.8,0.9,1.3,1.3
		c0.5,0.4,1,0.6,1.5,0.6c0.8,0,1.6,0,2.3-0.1c0.8-0.1,1.6-0.5,2.5-1.3c0.3-0.3,1-0.8,2-1.5c1-0.7,2-1.5,3.1-2.4c1.1-0.9,2-1.9,2.9-3
		c0.9-1.1,1.4-2.2,1.5-3.4c0-0.7-0.1-1.1-0.4-1.2c-0.3-0.1-0.6-0.2-1-0.2c-0.2-0.1-0.5,0-1,0.2c-0.4,0.2-1.1,0.5-1.9,0.9
		c-0.2,0.2-0.5,0.4-1,0.7c-0.4,0.3-0.9,0.6-1.3,0.9c-0.4,0.3-0.9,0.5-1.2,0.8c-0.4,0.2-0.6,0.3-0.6,0.2c-0.7,0-1.6-0.4-2-1.3
		c-0.5-0.9-0.8-1.8-0.8-2.7V240.9z M254.8,230.2c0.1-0.3,0.1-0.6,0.2-1c0.1-0.3,0.2-0.6,0.2-0.9c0.3-0.6,0.5-1.2,0.8-1.8
		c0.3-0.5,0.5-0.9,0.8-1.3c0.3-0.4,0.5-0.6,0.8-0.6l1.3,0.2c0.3,0.1,0.6,0.2,0.8,0.4c0.2,0.1,0.6,0.3,0.8,0.5
		c0.2,0.2,0.4,0.4,0.4,0.7v1.3c0,0.5-0.5,1-1,1.5c-0.4,0.4-1.1,0.8-1.6,1.2c-0.6,0.3-1.2,0.6-1.7,0.7c-0.5,0.2-1,0.2-1.2,0.2
		c-0.3,0-0.5-0.1-0.6-0.3C254.8,230.7,254.7,230.5,254.8,230.2z"/>
	<path fill="#FFFFFF" d="M297,241.8c-0.5,0.5-1,0.9-1.4,1.3c-0.4,0.4-0.8,0.8-1.3,1.1c-0.4,0.4-0.8,0.7-1.1,1l-1.1,1.7
		c-0.4,0-0.7-0.1-0.9-0.4c-0.2-0.3-0.4-0.6-0.4-1c-0.1-0.4,0.1-0.8,0.1-1.2c0-0.4,0.2-0.7,0.2-0.8v-3.1v-4.2c0-0.3,0-0.8,0-1.5
		c0-0.7,0.1-1.2,0.5-1.5c0.3-0.7,0.5-1.3,0.5-1.8c0.1-0.4,0.1-0.9,0.1-1.3c0.2-0.5,0.4-1.2,0.6-2.1c0.3-0.9,0.5-1.8,0.7-2.7
		c0.2-0.9,0.4-1.7,0.6-2.4c0.2-0.7,0.2-1.2,0.2-1.4c0-1.1-0.2-2-0.7-2.6c-0.5-0.6-1.3-1.1-2.4-1.1l-1.5,0.5h-1.3h-2.2
		c-0.4,1-0.9,0.8-1.4,1.2c-0.5,0.3-0.9,0.6-1.2,0.6c-0.8,0.4-1.5,0.8-2.1,0.9c-0.6,0.1-1.3,0.3-1.9,0.6c-0.6,0.2-1.3,0.6-1.9,1
		c-0.6,0.4-1.3,1.1-2,2.1c-1.4,2.1-2.9,3.8-4.4,5.2c-0.4,0.4-0.7,1-1.1,1.6c-0.3,0.7-0.6,1.3-0.9,2c-0.3,0.7-0.5,1.3-0.6,1.9
		c-0.2,0.6-0.2,1-0.2,1.1l-1.1,9.3l0.2,5.7c0,0.3,0.1,0.8,0.2,1.5c0.1,0.7,0.3,1.4,0.6,2.1c0.3,0.7,0.6,1.3,1.1,1.9
		c0.5,0.5,1.1,0.8,1.8,0.8c0.4,0,0.8-0.1,1.3-0.4c0.5-0.3,0.9-0.6,1.3-1c0.4-0.4,0.8-0.8,1.1-1.2c0.3-0.4,0.6-0.7,0.8-0.9
		c0.5-0.5,1.2-1.4,2.1-2.6c0.8-1.2,1.7-2.4,2.5-3.6c0.8-1.2,1.5-2.2,2.2-3.2c0.6-0.9,1-1.4,1.2-1.4s0.5,0,0.7,0.1
		c0.4,0.1,0.7,0.3,0.7,0.6v1.6v2.9c0,0.7-0.3,1.5-0.4,2.3c-0.2,0.8-0.4,1.6-0.6,2.5c-0.2,0.9-0.3,1.8-0.3,2.7c0,0.9,0.1,1.9,0.5,2.8
		c0.3,0.6,0.6,0.9,1.1,0.9c0.4,0,0.9-0.1,1.3-0.4c0.4-0.3,0.7-0.7,1-1.2c0.3-0.5,0.4-1,0.4-1.5l1.7-2.5c0.6-1,1.3-1.8,2-2.5
		c0.7-0.7,1.4-1.5,2.1-2.2c0.7-0.7,1.3-1.5,1.9-2.2c0.6-0.8,1.1-1.7,1.4-2.7c0.2-0.2,0.4-0.5,0.6-1l0.3-0.6c0-0.3-0.1-0.6-0.3-0.9
		C297.6,242,297.3,241.8,297,241.8z M284.2,230.3c-0.1,0.8-0.1,1.3-0.1,1.5c0,0.3-0.3,1.1-0.8,2.4c-0.6,1.3-1.2,2.7-2.1,4.3
		c-0.8,1.5-1.7,2.9-2.6,4.1c-0.9,1.2-1.7,1.8-2.4,1.8c-0.7,0-1.3-0.3-1.5-0.9c-0.3-0.6-0.5-1.3-0.6-2.1c-0.1-0.8-0.1-1.5-0.1-2.2
		c0.1-0.7,0.1-1.2,0.1-1.5c0-0.5,0.2-1.3,0.6-2.2c0.4-0.9,0.9-1.9,1.5-3c0.6-1.1,1.4-2.1,2.2-3.1c0.8-1,1.7-1.9,2.7-2.7
		c1-0.7,1.7-0.9,2.2-0.5c0.4,0.3,0.7,0.9,0.9,1.7C284.2,228.7,284.3,229.5,284.2,230.3z"/>
	<path fill="#FFFFFF" d="M328,226.4c0.6-1.2,0.8-2.2,0.8-2.9c-0.1-0.6-0.3-1.4-0.6-2.4c-0.3-1-0.9-1.8-1.9-2.4c-0.2,0-0.5,0-0.9-0.1
		c-0.4-0.1-0.8,0-1.1,0.1l-2.5,0.6c-0.5,0.4-1,1.1-1.6,2.1c-0.6,1.1-1.2,2.1-1.7,3.3c-0.6,1.1-1.2,2.1-1.8,3
		c-0.6,0.9-1.2,1.4-1.7,1.5c-0.2,0.1-0.3,0.1-0.5,0c-0.2-0.1-0.4-0.3-0.5-0.4c-0.2-0.2-0.4-0.4-0.5-0.6c-0.1-0.4-0.1-1,0.1-1.6
		c0.2-0.7,0.3-1.2,0.3-1.7c-0.2-0.6-0.3-1.3-0.2-2c0.1-0.3,0.1-0.6,0.2-0.9c0-0.6-0.2-1.1-0.6-1.5c-0.4-0.4-0.9-0.8-1.5-1.1
		c-0.7-0.3-1.1-0.6-1.3-0.9c-0.2-0.3-0.6-0.3-1.2-0.2c-1,0.1-1.7,0.4-2.3,0.9c-0.6,0.5-1.2,1.1-1.6,1.8c-0.5,0.7-1,1.5-1.4,2.3
		c-0.5,0.8-1,1.6-1.7,2.3c-0.5,0.4-1,0.8-1.6,1.2c-0.6,0.4-1.1,0.8-1.5,1.2c-0.5,0.4-0.8,0.8-1.1,1.3c-0.3,0.4-0.3,0.9-0.2,1.4
		c0.1,0.4,0.2,0.9,0.3,1.4c0.1,0.5,0.4,0.8,0.8,0.8c0.8-0.1,1.3-0.3,1.7-0.6c0.3-0.3,0.6-0.6,0.9-0.9c0.3-0.3,0.6-0.6,1-0.9
		c0.4-0.3,1-0.5,1.8-0.7c0.4-0.1,0.8-0.2,1.2-0.2c0.4,0,0.7,0.3,1,1l0.6,5.2c-0.4,1.9-0.8,3.8-1.2,5.8c-0.4,1.9-1.1,3.8-2.3,5.5
		c0,0.1-0.1,0.5-0.3,1.3c-0.2,0.7-0.4,1.6-0.6,2.5c-0.2,0.9-0.4,1.8-0.6,2.7c-0.2,0.9-0.2,1.5-0.2,1.9l1.1,2.2
		c0.2,0.2,0.3,0.4,0.6,0.6c0.4,0.4,0.8,0.6,1,0.6c0.7-0.1,1.4-0.2,2.1-0.3c0.6-0.1,1.1-0.3,1.7-0.5c0.5-0.2,1-0.4,1.3-0.7
		c0.3-0.6,0.5-1.4,0.7-2.2c0.2-0.8,0.4-1.7,0.5-2.6c0.1-0.9,0.2-1.8,0.3-2.6c0.1-0.8,0.1-1.5,0-2.2c0.3-0.7,0.5-1.5,0.4-2.3
		c0-0.8,0.1-1.6,0.4-2.3c0.3-0.7,0.6-1.4,1.2-1.9c0.5-0.6,0.9-1,1.3-1.4c0-1.2,0.3-2.5,0.8-3.9c0.5-1.4,1.2-2.7,2.1-3.8
		c0.6-0.6,1.2-1.1,1.8-1.7c0.6-0.5,1.3-0.8,1.9-0.8c0.3,0,0.6,0,0.8,0c0.2,0,0.5,0.1,0.8,0.2c0.2,0.1,0.4,0.2,0.5,0.2
		c0.1,0,0.3,0,0.6,0c0.3-0.1,0.6-0.2,1-0.4c0.3-0.1,0.7-0.3,1-0.5C326.8,228.7,327.5,227.7,328,226.4z"/>
	<path fill="#FFFFFF" d="M333,240.9c0-1.3,0.5-2.4,1.2-3.3c0.7-0.8,1.5-1.6,2.5-2.2c1-0.6,2.1-1.2,3.2-1.7c1.1-0.5,2.2-1.1,3.2-1.8
		c1.1-0.6,2.2-1.4,3.3-2.3c1.1-0.9,1.6-2,1.6-3.4c0.1-1,0-2-0.2-2.9c-0.2-0.9-0.6-1.7-1-2.4c-0.5-0.7-1.1-1.2-1.9-1.6
		c-0.8-0.4-1.7-0.6-2.8-0.6c-1-0.1-2.2,0.1-3.6,0.8c-1.4,0.6-2.8,1.4-4.2,2.4c-1.3,1-2.5,2.1-3.5,3.4c-1,1.2-1.6,2.4-1.7,3.6
		l-1.1,2.6c-0.2,0.4-0.3,0.7-0.5,1.1c-0.3,0.7-0.4,1.3-0.4,2c-0.2,0.3-0.3,0.6-0.3,0.8c0,0.2,0,0.4,0.1,0.6c0.1,0.2,0.1,0.3,0.1,0.5
		c0,0.2-0.1,0.3-0.3,0.5c-0.1,0.3-0.1,1-0.3,1.9c-0.1,1-0.3,2-0.4,3.1c-0.2,1.1-0.4,2.1-0.6,3c-0.1,0.9-0.3,1.5-0.3,1.7v1.3
		l-0.1,1.6c0.1,0.2,0.4,0.3,0.5,0.6c0.2,0.4,0.5,0.8,0.5,1.2v1.3c0,0.4-0.1,0.8,0.1,1.3c0.2,0.5,0.4,1,0.8,1.5
		c0.4,0.5,0.8,0.9,1.3,1.3c0.5,0.4,1,0.6,1.4,0.6c0.8,0,1.6,0,2.3-0.1c0.8-0.1,1.6-0.5,2.5-1.3c0.3-0.3,1-0.8,2-1.5
		c1-0.7,2-1.5,3.1-2.4c1.1-0.9,2-1.9,2.9-3c0.9-1.1,1.4-2.2,1.5-3.4c0-0.7-0.1-1.1-0.4-1.2c-0.3-0.1-0.6-0.2-1-0.2
		c-0.2-0.1-0.5,0-1,0.2c-0.4,0.2-1.1,0.5-1.9,0.9c-0.2,0.2-0.5,0.4-1,0.7c-0.4,0.3-0.9,0.6-1.3,0.9c-0.4,0.3-0.9,0.5-1.2,0.8
		c-0.4,0.2-0.6,0.3-0.6,0.2c-0.7,0-1.5-0.4-1.9-1.3c-0.5-0.9-0.7-1.8-0.7-2.7V240.9z M335.6,230.2c0.1-0.3,0.1-0.6,0.2-1
		c0.1-0.3,0.2-0.6,0.2-0.9c0.3-0.6,0.5-1.2,0.8-1.8c0.3-0.5,0.5-0.9,0.8-1.3c0.3-0.4,0.5-0.6,0.8-0.6l1.3,0.2
		c0.3,0.1,0.6,0.2,0.8,0.4c0.2,0.1,0.2,0.3,0.4,0.5c0.2,0.2,0,0.4,0,0.7v1.3c0,0.5-0.1,1-0.5,1.5c-0.4,0.4-0.9,0.8-1.4,1.2
		c-0.6,0.3-1,0.6-1.6,0.7c-0.5,0.2-0.9,0.2-1.2,0.2c-0.3,0-0.5-0.1-0.6-0.3C335.6,230.7,335.6,230.5,335.6,230.2z"/>
</g>
</svg>
