<?xml version="1.0" encoding="utf-8"?>
<!-- Generator: Adobe Illustrator 18.0.0, SVG Export Plug-In . SVG Version: 6.00 Build 0)  -->
<!DOCTYPE svg PUBLIC "-//W3C//DTD SVG 1.1//EN" "http://www.w3.org/Graphics/SVG/1.1/DTD/svg11.dtd">
<svg version="1.1" id="Layer_1" xmlns="http://www.w3.org/2000/svg" xmlns:xlink="http://www.w3.org/1999/xlink" x="0px" y="0px"
	 viewBox="0 0 273.6 351.4" enable-background="new 0 0 273.6 351.4" xml:space="preserve">
<g>
	<path fill="#D6D6D6" d="M141.6,0c0,2.1,0,4.1,0,6.2c0,1,0.4,1.4,1.4,1.4c1.3-0.1,2.7,0.1,4,0c1.8-0.2,2.2,0.5,2.2,2.2
		c-0.1,3.8,0.2,7.5,0.1,11.3c0,1.2,0.4,1.7,1.6,1.5c0.1,0,0.3,0,0.4,0c1.8,0.2,4-0.8,5.1,0.4c1,1.1,0.3,3.3,0.3,5
		c0.1,2.8,0.1,5.6,0.1,8.3c0,1,0.3,1.4,1.4,1.4c1.5,0,3,0,4.6,0c1,0,1.4,0.3,1.4,1.4c0,9.1,0,18.3,0.1,27.4c0,1.2-0.4,1.7-1.6,1.6
		c-1.4-0.1-2.8,0.1-4.2,0c-1.4-0.1-1.7,0.5-1.6,1.7c0.1,1.3-0.1,2.7,0,4c0.1,1.5-0.4,1.9-1.9,1.9c-7-0.1-14,0-21,0
		c-2.5,0-4.9,0-7.4,0c-2,0-4.1,0.1-6.1,0c-1,0-1.4,0.3-1.4,1.4c0.1,1.6,0,3.3,0,5c0,0.9-0.4,1.3-1.3,1.3c-1.7,0-3.3,0-5,0
		c-1.1,0-1.3,0.4-1.3,1.4c0,4.6,0,9.1-0.1,13.7c0,2.5,0,5,0,7.5c-0.4,2-0.2,4.1-0.2,6.1c0,1-0.3,1.4-1.4,1.4c-1.5-0.1-3,0-4.6,0
		c-1.1,0-1.6,0.2-1.5,1.4c0.1,2.1,0.1,4.2,0.1,6.3c0,2.5-0.1,5-0.1,7.5c-2,0-4.1,0.1-6.1,0c-1,0-1.4,0.3-1.4,1.4
		c0.1,1.5-0.1,3,0,4.6c0.1,1.3-0.3,1.7-1.7,1.7c-4.5-0.1-9-0.1-13.5-0.1c0-2.5,0-5-0.1-7.5c0-0.7,0.1-1.5,0.1-2.2
		c-0.3-11.2-0.2-22.4,0-33.6c0-1.5,0.3-2.1,1.9-2c1.8,0.1,3.7,0,5.6-0.1l0,0c0,2,0,4.1,0,6.1c0,1,0.3,1.4,1.4,1.4
		c1.6-0.1,3.2-0.1,4.7,0c1,0,1.4-0.3,1.4-1.4c0-2,0-4.1,0-6.1c2.1,0,4.1-0.1,6.2,0c1,0,1.4-0.2,1.3-1.3c-0.1-2.1,0-4.1-0.1-6.2
		c0-2,0-4.1,0.1-6.1c0.1-1.1-0.3-1.5-1.4-1.5c-7.1,0-14.1,0-21.2,0c0-2.5,0-5-0.1-7.5c0-10.1,0-20.2,0-30.3c0-2.5,0-5,0.1-7.5
		c1.8,0,3.6-0.2,5.4,0c1.6,0.1,2.3-0.3,2.1-2c-0.2-1.8,0-3.7,0-5.6c0-2,0.1-4.1,0.1-6.1c0-1.1,0.3-1.5,1.4-1.4c2,0.1,4.1,0,6.1-0.1
		c1.8,0,3.7-0.1,5.5,0c1.7,0.1,2.1-0.5,2-2.1c-0.1-1.8,0-3.6,0.1-5.3c2.5,0,5-0.1,7.5-0.1c4.6,0,9.2-0.1,13.9-0.1
		c0.9,0,1.3-0.3,1.3-1.3c0-2,0-4.1,0-6.1C131.5,0,136.5,0,141.6,0z"/>
	<path fill="#636363" d="M126.5,0c0,2-0.1,4.1,0,6.1c0,0.9-0.3,1.3-1.3,1.3c-4.6,0-9.2,0-13.9,0.1c0-2.5,0-5,0.1-7.5
		C116.4,0,121.4,0,126.5,0z"/>
	<path fill="#636363" d="M187,219.2c-2,0-4.1,0-6.1,0.1c-1.2,0.1-1.6-0.3-1.6-1.5c0.1-2,0-4.1,0-6.1c0-0.7-0.1-1.3-0.1-2
		c0-6,0-6-6.1-5.5c-0.9,0.1-1.3,0.4-1.3,1.3c0,2,0,4.1,0,6.1c-4.7,0.4-9.3-0.2-14,0c-1.1,0-1.1-0.6-1.1-1.4c0-2-0.1-4.1-0.1-6.1
		c0-0.6,0-1.2,0-1.8c0-6,0-6-6-5.7c-1.1,0.1-1.5,0.4-1.5,1.5c0.1,2,0,4,0,5.9c-7.2,0-14.4,0-21.6,0.1c-1,0-1.3-0.4-1.3-1.3
		c0-2,0-4.1,0-6.1c0.1-0.1,0.1-0.1,0.2-0.2c2,0,4.1,0,6.1,0c1,0,1.4-0.3,1.4-1.4c-0.1-2,0-4.1,0-6.1c0-2.5,0-5.1,0-7.6
		c7.1,0,14.3,0,21.4,0c1.1,0,1.4-0.4,1.4-1.4c0-1.5,0.1-2.9,0-4.4c-0.1-1.3,0.4-1.7,1.7-1.7c3.8,0,7.7-0.2,11.5-0.2
		c1.4,0,1.9-0.4,1.8-1.8c-0.1-1.3,0-2.7,0-4c-0.1-1.3,0.3-1.8,1.7-1.7c1.6,0.1,3.2,0,4.8,0c1,0,1.4-0.4,1.4-1.4
		c-0.1-1.5,0.1-3,0-4.6c-0.1-1.2,0.4-1.6,1.6-1.6c4.4,0,8.9-0.1,13.3-0.2c0.1,0.1,0.1,0.1,0.2,0.2c0,1.9-0.2,3.7-0.1,5.6
		c0.1,1.5-0.3,2.2-2,2c-1.2-0.1-2.5,0.1-3.8,0c-1.4-0.1-1.8,0.4-1.8,1.8c0.1,3.6-0.1,7.2,0,10.7c0.1,1.9-0.3,2.9-2.5,2.5
		c-1.2-0.2-2.4,0-3.6,0c-1.2-0.1-1.7,0.3-1.6,1.6c0.1,1.5,0.1,2.9,0,4.4c-0.1,1.4,0.4,1.8,1.8,1.8c6.4-0.1,12.7-0.1,19.1,0
		c1.6,0,2-0.6,2-2.1c-0.1-3.8,0-7.7-0.1-11.5c0-1,0.2-1.6,1.4-1.6c4.6,0,9.1,0,13.7,0c0,0,0,0,0,0c0,5,0,10.1,0,15.1l0,0
		c-2,0-4,0-6,0c-1.2,0-1.7,0.4-1.6,1.6c0.1,2,0.1,4,0.1,6l-0.1,0.1c-2,0-3.9,0-5.9,0c-1.1,0-1.5,0.4-1.5,1.5c0,2-0.1,4-0.1,6.1
		c0,0,0,0,0,0c-2,0-4.1,0.1-6.1,0.1c-1,0-1.4,0.3-1.4,1.4c0,2,0,4.1-0.1,6.1c-2,0-3.9,0.2-5.9,0.1c-1.3-0.1-1.7,0.4-1.6,1.7
		C187.1,215.4,187,217.3,187,219.2z"/>
	<path fill="#636363" d="M111.4,196.5c-8.4,0-16.8,0.1-25.2,0.1c-3.6,0-7.3,0.1-10.9,0.1c-1.3,0-1.9,0.4-1.7,1.7c0,0.1,0,0.1,0,0.2
		c-0.2,1.8,0.8,4-0.5,5.1c-1.1,1-3.3,0.3-5,0.3c-8.3,0-16.6,0-24.8,0.1c0-2,0-4.1,0.1-6.1c0-1-0.3-1.4-1.4-1.4
		c-2,0.1-4.1,0.1-6.1,0.1c0,0-0.1-0.1-0.1-0.1c0-2,0.1-4,0-5.9c0-1.2,0.3-1.6,1.5-1.6c1.9,0,4.5,0.9,5.7-0.4
		c1.1-1.2,0.3-3.6,0.3-5.5c0-1.3,0.3-1.8,1.7-1.7c2,0.1,3.9,0.1,5.9,0.1c7,0,13.9,0,20.9-0.1c1.6,0,2,0.4,2,2c0,5.9,0,5.9,5.9,5.5
		c1-0.1,1.4-0.4,1.4-1.4c-0.1-1.4,0.1-2.8,0-4.2c-0.1-1.5,0.4-2,1.9-1.9c3.8,0.1,7.7-0.1,11.5,0c1.4,0,1.8-0.4,1.8-1.8
		c-0.1-1.9,0-3.8,0.1-5.8l0,0c2.2,0,4.3-0.1,6.5-0.1c1,0,1.2,0.5,1.2,1.3c0,1.4,0.1,2.8,0,4.1c-0.2,1.6,0.3,2.2,2,2.1
		c1.8-0.1,3.7-0.3,5.5,0.1c0,2.5,0,5,0,7.5C111.4,191.5,111.4,194,111.4,196.5z"/>
	<path fill="#636363" d="M81.2,136.1c4.5,0,9,0,13.5,0.1c1.3,0,1.7-0.4,1.7-1.7c-0.1-1.5,0-3,0-4.6c0-1,0.3-1.4,1.4-1.4
		c2,0,4.1,0,6.1,0c0,2,0.1,4.1,0,6.1c0,1.1,0.3,1.6,1.4,1.5c2-0.1,4.1-0.1,6.1-0.1c0,4.4,0.1,8.7,0,13.1c0,1.6,0.5,2,2,2
		c4.4-0.1,8.7,0,13.1,0c0,1.8-0.2,3.7-0.1,5.5c0.1,1.4-0.3,2-1.8,1.9c-1.8-0.1-4.1-0.8-5.2,0.3c-1.2,1.2-0.4,3.5-0.4,5.3
		c0.1,1.7-0.5,2.1-2.1,2.1c-6.3-0.1-12.6,0-18.9,0c-1.4,0-1.9,0.4-1.8,1.8c0.1,1.9,0,3.8,0,5.8c0,0,0,0,0,0c-1.8,0-3.7-0.1-5.5,0
		c-1.6,0.1-2.2-0.4-2.1-2.1c0.1-4.3,0.1-8.7,0.1-13c2.1,0,4.2,0,6.3,0.1c0.9,0,1.3-0.3,1.3-1.3c0-2.2,0-4.3,0-6.5
		c0.7,0,1.3-0.1,2-0.1c5.7,0,5.7,0,5.5-5.8c0-0.1,0-0.3,0-0.4c0-0.8-0.3-1.2-1.2-1.2c-1.7,0-3.3,0-5,0c-0.9,0-1.3,0.3-1.3,1.3
		c0,2-0.1,4.1-0.1,6.1c-2,0-4.1,0-6.1-0.1c-1.1,0-1.7,0.3-1.6,1.5c0.1,2,0.1,4.1,0.1,6.1c-1.6,0-3.2,0-4.7,0c-2.7,0-2.7,0-2.7-2.6
		c0-1.1-0.1-2.2,0-3.4c0.1-1.1-0.4-1.5-1.5-1.5c-2,0.1-4.1,0-6.1,0c0-2.1,0-4.1-0.1-6.2c0-1.2,0.4-1.5,1.5-1.5c1.5,0.1,3.1,0,4.6,0
		c1.1,0.1,1.5-0.3,1.5-1.4C81,140.2,81.1,138.1,81.2,136.1z"/>
	<path fill="#D6D6D6" d="M73.6,151.2c2,0,4.1,0.1,6.1,0c1.1,0,1.6,0.4,1.5,1.5c-0.1,1.1,0,2.2,0,3.4c0,2.6,0,2.6,2.7,2.6
		c1.6,0,3.2,0,4.7,0c0,0,0.1,0.1,0.1,0.1c0,4.3,0,8.7-0.1,13c-0.1,1.7,0.5,2.2,2.1,2.1c1.8-0.1,3.7,0,5.5,0c0,1.9-0.2,3.8-0.1,5.8
		c0.1,1.4-0.3,1.8-1.8,1.8c-3.8-0.1-7.7,0.1-11.5,0c-1.5,0-2,0.5-1.9,1.9c0.1,1.4,0,2.8,0,4.2c0,1-0.4,1.3-1.4,1.4
		c-5.9,0.3-5.9,0.4-5.9-5.5c0-1.6-0.5-2-2-2c-7,0.1-13.9,0-20.9,0.1c0.1-2.5,0.1-5,0.2-7.5c2,0,4.1,0,6.1,0.1
		c1.2,0.1,1.5-0.4,1.4-1.5c-0.1-2,0-4.1-0.1-6.1l0,0c2.1,0,4.1,0,6.2,0.1c1.1,0,1.5-0.3,1.5-1.5c-0.1-2-0.1-4.1-0.1-6.1l0,0
		c2.1,0,4.1,0,6.2,0.1c1.1,0,1.5-0.4,1.5-1.5C73.6,155.3,73.6,153.3,73.6,151.2C73.6,151.2,73.6,151.2,73.6,151.2z"/>
	<path fill="#636363" d="M88.7,90.7c-1.9,0-3.7,0.2-5.6,0.1c-1.6-0.1-1.9,0.5-1.9,2c-0.2,11.2-0.3,22.4,0,33.6
		c0,0.7-0.1,1.4-0.1,2.2c-1.9,0-3.8-0.1-5.8,0c-1.4,0.1-1.8-0.5-1.8-1.8c0.1-12,0.1-23.9,0.1-35.9c0-4.5,0-9-0.1-13.5
		c0-1.4,0.4-1.9,1.8-1.8c1.9,0.1,3.8,0.1,5.7,0.1c7.1,0,14.1,0.1,21.2,0c1.1,0,1.5,0.3,1.4,1.5c-0.1,2-0.1,4.1-0.1,6.1
		c-4.4,0-8.7,0-13.1-0.1c-1.3,0-1.9,0.3-1.8,1.8C88.8,86.9,88.7,88.8,88.7,90.7z"/>
	<path fill="#636363" d="M73.7,55.2c-0.1,3.6,0,7.2-0.1,10.7c0,1.6,0.3,2.3,2.1,2.2c1.8-0.1,3.6,0,5.4,0c0-10.1,0-20.2,0-30.3
		c-1.9,0-3.8,0.1-5.8,0c-1.4-0.1-1.9,0.5-1.8,1.9c0.1,1.4,0,2.8,0,4.2L73.7,55.2z"/>
	<path fill="#636363" d="M224.8,189.1c0,4.4-0.1,8.7,0,13.1c0,1.5-0.5,1.9-1.9,1.9c-4.4-0.1-8.9,0-13.3,0c0-2.5,0-4.9,0-7.4
		c0,0,0.1-0.1,0.1-0.1c2,0,3.9-0.1,5.9-0.1c1.2,0.1,1.6-0.4,1.5-1.6c-0.1-2,0.1-3.9,0.1-5.9c0,0,0,0,0,0c2.5,0,4.9-0.1,7.4-0.1
		C224.7,188.9,224.7,189,224.8,189.1z"/>
	<path fill="#D6D6D6" d="M111.4,196.5c0-2.5,0-5-0.1-7.5c2.5,0,5,0,7.5,0c0,2.5,0,5,0,7.5C116.4,196.5,113.9,196.5,111.4,196.5z"/>
	<path fill="#636363" d="M118.9,196.5c0-2.5,0-5,0-7.5c2.5-0.2,5.1-0.2,7.6,0c0,2.5,0,5,0,7.4c-0.1,0.1-0.1,0.1-0.2,0.2
		C123.9,196.6,121.4,196.6,118.9,196.5z"/>
	<path fill="#636363" d="M35.8,204.1c-2,0-4.1,0-6.1,0.1c-1,0-1.4-0.3-1.4-1.4c-0.4-6.1-0.5-6.1,5.7-6.2c0.6,0,1.2-0.1,1.8-0.1
		c0,0,0.1,0.1,0.1,0.1C35.8,199.1,35.8,201.6,35.8,204.1z"/>
	<path fill="#D6D6D6" d="M35.8,204.1c0-2.5,0-4.9,0-7.4c2,0,4.1,0,6.1-0.1c1,0,1.4,0.4,1.4,1.4c-0.1,2,0,4.1-0.1,6.1
		C40.8,204.1,38.3,204.1,35.8,204.1z"/>
	<path fill="#D6D6D6" d="M149.2,204c0-2,0.1-4,0-5.9c0-1.1,0.3-1.5,1.5-1.5c6-0.3,6-0.3,6,5.7c0,0.6,0,1.2,0,1.8
		C154.2,204.1,151.7,204.1,149.2,204z"/>
	<path fill="#D6D6D6" d="M209.5,196.6c0,2.5,0,4.9,0,7.4c-2.5,0-5,0.1-7.5,0.1c0.1-2,0.2-4,0.1-6.1c0-1.1,0.3-1.5,1.5-1.5
		C205.6,196.7,207.6,196.6,209.5,196.6z"/>
	<path fill="#636363" d="M103.8,7.6c0,1.8-0.2,3.6-0.1,5.3c0.1,1.6-0.3,2.3-2,2.1c-1.8-0.2-3.7,0-5.5,0c0-2.1,0-4.1-0.1-6.2
		c0-1,0.4-1.4,1.4-1.4C99.6,7.6,101.7,7.6,103.8,7.6z"/>
	<path fill="#D6D6D6" d="M171.9,211.6c0-2,0-4.1,0-6.1c0-0.9,0.3-1.2,1.3-1.3c6.1-0.5,6.1-0.5,6.1,5.5c0,0.7,0.1,1.3,0.1,2
		C176.9,211.6,174.4,211.6,171.9,211.6z"/>
	<path fill="#D6D6D6" d="M194.5,211.7c0-2,0.1-4.1,0.1-6.1c0-1,0.3-1.4,1.4-1.4c2,0,4.1-0.1,6.1-0.1c0,2.5-0.1,5-0.1,7.5
		C199.5,211.5,197,211.4,194.5,211.7L194.5,211.7z"/>
	<path fill="#D6D6D6" d="M187,219.2c0-1.9,0.1-3.8,0-5.7c-0.1-1.3,0.3-1.7,1.6-1.7c2,0.1,3.9,0,5.9-0.1c0,0,0,0,0,0
		c0,2.5,0,5-0.1,7.5C191.9,219.2,189.5,219.2,187,219.2z"/>
	<path fill="#636363" d="M194.4,219.1c0-2.5,0-5,0.1-7.5c2.5-0.2,5-0.1,7.5-0.1c0,2.1,0,4.2,0,6.3c0,0.9-0.3,1.3-1.3,1.3
		C198.6,219.1,196.5,219.2,194.4,219.1z"/>
	<path fill="#636363" d="M73.6,151.2c0,2.1,0,4.1,0.1,6.2c0,1.1-0.3,1.5-1.5,1.5c-2-0.1-4.1-0.1-6.2-0.1c0-2,0-4.1,0-6.1
		c0-1.1,0.3-1.5,1.5-1.5C69.5,151.3,71.5,151.2,73.6,151.2z"/>
	<path fill="#636363" d="M66,158.8c0,2.1,0,4.1,0.1,6.1c0,1.1-0.4,1.5-1.5,1.5c-2-0.1-4.1,0-6.2-0.1c0-2.1,0.1-4.1,0-6.2
		c0-1,0.3-1.4,1.4-1.4C61.9,158.9,64,158.8,66,158.8z"/>
	<path fill="#636363" d="M58.5,166.4c0,2,0,4.1,0.1,6.1c0,1.1-0.3,1.6-1.4,1.5c-2-0.1-4.1-0.1-6.1-0.1c0-2.1,0-4.1,0-6.2
		c0-1,0.3-1.4,1.4-1.4C54.4,166.5,56.4,166.4,58.5,166.4z"/>
	<path fill="#636363" d="M88.6,22.6c0,1.9-0.1,3.7,0,5.6c0.1,1.7-0.5,2.1-2.1,2c-1.8-0.1-3.6,0-5.4,0c0-2.1,0-4.2-0.1-6.4
		c0-1.1,0.4-1.4,1.4-1.3C84.5,22.6,86.5,22.6,88.6,22.6z"/>
	<path fill="#636363" d="M179.4,22.7c1.9,0,3.8,0.1,5.8-0.1c1.6-0.1,1.9,0.5,1.8,1.9c-0.1,1.4,0,2.9,0,4.4c0,1,0.3,1.4,1.4,1.4
		c1.3-0.1,2.7,0.1,4,0c1.9-0.2,2.2,0.6,2.1,2.2c-0.1,6.2,0.1,12.5,0.1,18.7c0,1.3,0.3,1.8,1.7,1.7c1.4-0.1,2.8,0.1,4.2,0
		c1.4-0.1,1.8,0.4,1.8,1.8c0,6.2,0.1,12.4,0.1,18.7c0,1.6,0.3,2.2,2,2.2c1.7-0.1,4-0.9,5.1,0.4c1,1.1,0.4,3.3,0.3,5
		c-0.2,1.9,0.6,2.3,2.4,2.3c1.7-0.1,3.9-0.8,5,0.4c1,1,0.4,3.2,0.3,4.8c-0.2,2,0.5,2.4,2.4,2.4c5.2-0.1,5.3,0,5.2,5.2
		c0,1.9,0.5,2.3,2.3,2.3c5.2-0.1,5.2,0,5.2,5.3c0,7.6-0.1,15.2,0,22.9c0,1.9-0.6,2.3-2.4,2.2c-3.6-0.1-7.3,0.1-10.9,0
		c-1.4,0-1.9,0.5-1.8,1.8c0.1,1.4,0,2.8,0,4.2c0.1,1.2-0.5,1.6-1.6,1.6c-6,0.2-6.1,0.2-6-5.7c0-1.6-0.5-2-2-2
		c-6.9,0.1-13.8,0-20.7,0c0,0,0,0,0,0c0-5,0-10.1,0-15.1c0-4.6,0-9.1,0-13.7c0-1-0.4-1.4-1.4-1.4c-1.6,0-3.2,0-4.8,0
		c-0.9,0-1.3-0.4-1.3-1.3c0-4.2,0-8.5-0.1-12.7c0-1,0.4-1.3,1.3-1.3c1.5,0,3-0.1,4.6,0c1.2,0.1,1.8-0.3,1.6-1.6
		c-0.1-0.6,0-1.2,0-1.8c0-4.1,0-4.1,4.2-4.2c3.8,0,3.2,0.5,3.2-3.3c0-4.2,0-4.2-4.1-4.2c-3.8,0-3.3,0.5-3.3-3.2c0-8.3-0.1-16.7,0-25
		c0-1.5-0.3-2.1-2-2.1c-1.7,0.1-4.1,0.8-5.1-0.4c-1-1.2-0.3-3.4-0.3-5.2C179.4,29,179.4,25.9,179.4,22.7L179.4,22.7z"/>
	<path fill="#D6D6D6" d="M96.2,173.9c0-1.9,0.1-3.8,0-5.8c-0.1-1.4,0.4-1.8,1.8-1.8c6.3,0.1,12.6,0,18.9,0c1.6,0,2.2-0.4,2.1-2.1
		c-0.1-1.8-0.8-4.2,0.4-5.3c1.1-1.1,3.4-0.4,5.2-0.3c1.6,0.1,1.9-0.5,1.8-1.9c-0.1-1.8,0-3.7,0.1-5.5l0,0c2.1,0,4.1,0,6.2,0.1
		c1.2,0.1,1.6-0.3,1.6-1.6c-0.1-4-0.1-7.9,0-11.9c0-1.3-0.4-1.7-1.7-1.7c-4.5,0.1-9,0-13.5,0c0,0,0,0,0,0c0-2.5,0-5.1,0-7.6
		c0,0,0,0,0,0c0.6,0,1.2,0,1.8-0.1c1.8-0.1,4.2,0.8,5.3-0.4c1.1-1.3,0.2-3.7,0.3-5.6c0.1-1.2-0.4-1.5-1.5-1.4c-2,0-4,0-5.9-0.1l0,0
		c0-5.1,0-10.1-0.1-15.2c0-2.5,0-5,0-7.5c0-2.1,0.1-4.1,0.1-6.1c0-1.1,0.4-1.5,1.5-1.5c6.6,0,13.1,0,19.7,0c1.1,0,1.6,0.3,1.5,1.5
		c-0.1,1.6,0,3.2,0,4.8c0,1,0.3,1.4,1.4,1.4c1.7-0.1,3.3-0.1,5,0c1,0,1.4-0.4,1.4-1.4c0-1.5,0.1-3,0-4.6c-0.1-1.2,0.3-1.6,1.5-1.6
		c4.5,0,9,0,13.5,0c0,2.5,0,5,0.1,7.5c0,4.4-0.1,8.9,0,13.3c0,1.6-0.5,2-2,2c-1.8,0-4-0.8-5.1,0.4c-1,1.1-0.4,3.3-0.3,5
		c0.1,1.8-0.6,2.2-2.3,2.2c-1.7,0-4-0.8-5.1,0.4c-1,1.1-0.4,3.3-0.3,5c0.1,1.7-0.6,2.2-2.2,2.1c-1.7-0.1-3.9-0.8-5,0.3
		c-1.2,1.2-0.2,3.4-0.4,5.1c-0.2,1.7,0.5,2.2,2.1,2.1c1.2-0.1,2.4,0.1,3.6,0c1.4-0.1,1.8,0.5,1.8,1.8c0,6.9,0,13.9,0,20.8
		c0,0,0,0,0,0c-2,0-4.1,0-6.1,0c-1.1,0-1.5,0.4-1.5,1.5c0.1,2,0,4.1,0,6.1c0,0,0,0,0,0c-2,0-4.1,0-6.1-0.1c-1.2,0-1.5,0.4-1.4,1.5
		c0.1,2,0,4.1,0,6.1c0,0,0,0,0,0c-2,0-4,0.1-6,0c-1.2,0-1.7,0.3-1.6,1.5c0.1,2,0,4,0,6c-5,0-10,0-15.1,0.1c-1.8-0.4-3.7-0.2-5.5-0.1
		c-1.7,0.1-2.2-0.5-2-2.1c0.1-1.4,0-2.8,0-4.1c0-0.9-0.2-1.4-1.2-1.3C100.5,173.8,98.4,173.9,96.2,173.9z"/>
	<path d="M194.3,158.6c-4.4,0.1-8.9,0.2-13.3,0.2c-1.2,0-1.7,0.3-1.6,1.6c0.1,1.5,0,3,0,4.6c0,1-0.4,1.4-1.4,1.4
		c-1.6-0.1-3.2,0.1-4.8,0c-1.3-0.1-1.8,0.4-1.7,1.7c0.1,1.3-0.1,2.7,0,4c0.1,1.4-0.3,1.8-1.8,1.8c-3.8,0-7.7,0.2-11.5,0.2
		c-1.3,0-1.8,0.4-1.7,1.7c0.1,1.4,0,2.9,0,4.4c0,1-0.3,1.4-1.4,1.4c-7.1,0-14.3,0-21.4,0c0,0,0,0,0,0c0-2.5,0-5,0-7.5l0,0
		c2,0,4.1,0,6.1,0c1.1,0,1.6-0.3,1.5-1.4c-0.1-2-0.1-4.1-0.1-6.1l0,0c2.1,0,4.1,0,6.2,0.1c1.2,0.1,1.5-0.4,1.4-1.5
		c-0.1-2.1,0-4.1-0.1-6.2c0,0,0,0,0,0c2,0,4-0.1,6,0.1c1.4,0.1,1.7-0.5,1.6-1.7c-0.1-1.5,0-3,0-4.6c0-1,0.3-1.4,1.4-1.4
		c1.5,0.1,3.1-0.1,4.6,0c1.2,0.1,1.6-0.4,1.6-1.6c0-3.8,0.1-7.7,0-11.5c0-1.7,0.5-2.2,2.2-2.1c1.2,0.1,2.4-0.1,3.6,0
		c1.4,0.1,1.8-0.5,1.8-1.8c0-1.8-0.9-4.2,0.4-5.3c1.2-1.1,3.6-0.3,5.4-0.3c3.1-0.1,6.2,0,9.3,0c0,0,0,0,0,0c0,2,0.1,4,0,6
		c0,1.2,0.4,1.6,1.6,1.6c3.9,0,7.8,0.1,11.7,0c1.3,0,1.7,0.4,1.7,1.7c0.1,5.8,0.2,5.8-5.6,5.8c-2.6,0-5.2,0.1-7.7,0.1
		c-1.5,0-1.8,0.6-1.7,1.9c0.1,1.8-0.7,4,0.3,5.2c1.1,1.3,3.4,0.5,5.1,0.4c1.7,0,2,0.6,1.9,2.1C194.3,155,194.3,156.8,194.3,158.6z"
		/>
	<path fill="#D6D6D6" d="M217.2,173.9c-4.6,0-9.1,0-13.7,0c-1.2,0-1.4,0.5-1.4,1.6c0,3.8,0,7.7,0.1,11.5c0,1.5-0.3,2.1-2,2.1
		c-6.4-0.1-12.7,0-19.1,0c-1.4,0-1.9-0.4-1.8-1.8c0.1-1.5,0.1-2.9,0-4.4c-0.1-1.3,0.5-1.6,1.6-1.6c1.2,0.1,2.4-0.1,3.6,0
		c2.1,0.3,2.5-0.6,2.5-2.5c-0.1-3.6,0-7.2,0-10.7c0-1.4,0.4-1.9,1.8-1.8c1.3,0.1,2.5-0.1,3.8,0c1.6,0.2,2-0.5,2-2
		c-0.1-1.8,0-3.7,0.1-5.6c2,0,4.1-0.1,6.1-0.1c1,0,1.4-0.3,1.4-1.4c-0.1-1.5,0-3,0-4.6c0-1.1,0.3-1.6,1.5-1.7
		c6.2-0.2,6.2-0.3,6.2,5.9c0,2.6,0,5.2-0.1,7.7c0,1.2,0.4,1.7,1.6,1.6c1.5-0.1,2.9,0,4.4,0c1.2-0.1,1.6,0.5,1.6,1.6
		C217.1,169.9,217.2,171.9,217.2,173.9z"/>
	<path fill="#D6D6D6" d="M239.9,143.7c0-9.4,0.1-18.8,0-28.2c0-1.5,0.3-2.2,2-2c1.7,0.2,4-0.7,5.1,0.4c1,1.1,0.3,3.3,0.3,5
		c0,7.6-0.1,15.2,0,22.8c0,1.5-0.3,2-1.9,1.9C243.5,143.5,241.7,143.6,239.9,143.7C239.8,143.6,239.9,143.7,239.9,143.7z"/>
	<path fill="#D6D6D6" d="M239.8,143.6c0,6.9-0.1,13.7-0.1,20.6c0,1.5-0.3,2.1-1.9,2c-1.8-0.1-3.7,0.1-5.5,0.1c0,0,0,0,0,0
		c0-6.8,0.1-13.6-0.1-20.4c0-2,0.6-2.5,2.5-2.4C236.4,143.8,238.2,143.7,239.8,143.6C239.9,143.7,239.8,143.6,239.8,143.6z"/>
	<path d="M164.3,98.3c0-2.5,0-5-0.1-7.5c0.4-4.3,0.1-8.7,0.1-13.1c0-1.6,0.4-2.1,2-2c1.3,0.1,2.6,0.1,4,0c1.1-0.1,1.3,0.4,1.3,1.4
		c0,6.5,0,13.1,0,19.6c0,1.1-0.4,1.5-1.5,1.5C168.3,98.2,166.3,98.2,164.3,98.3z"/>
	<path d="M171.9,113.2c0-2,0-4,0-6c0-1.1,0.4-1.3,1.4-1.4c6.1-0.3,6.1-0.3,6.1,5.6c0,2.6,0,5.2,0,7.7c0,1.2-0.4,1.6-1.6,1.6
		c-5.8,0.2-5.8,0.2-5.8-5.5C172,114.7,172,114,171.9,113.2C171.9,113.2,171.9,113.2,171.9,113.2z"/>
	<path fill="#D6D6D6" d="M224.6,188.9c-2.5,0-4.9,0.1-7.4,0.1c0-5,0-10.1,0-15.1c2.5,0,5.1,0,7.6,0c0,0,0,0,0,0
		C224.7,178.9,224.6,183.9,224.6,188.9z"/>
	<path fill="#D6D6D6" d="M217.5,151.2c0-2,0-4,0-6c0-1.1,0.3-1.6,1.5-1.5c1.6,0.1,3.2,0.1,4.8,0c1,0,1.4,0.4,1.4,1.4
		c-0.1,4.1-0.1,8.2-0.1,12.3c0,0.9-0.3,1.2-1.3,1.3c-6.2,0.6-6.2,0.6-6.2-5.6C217.6,152.5,217.6,151.9,217.5,151.2
		C217.5,151.2,217.5,151.2,217.5,151.2z"/>
	<path fill="#636363" d="M171.8,15.1c-2,0-4.1-0.1-6.1-0.1c-1,0-1.4-0.3-1.4-1.3c0.1-1.6,0.1-3.2,0-4.7c0-1,0.4-1.4,1.4-1.4
		c1.6,0.1,3.2,0.1,4.7,0c1.1,0,1.4,0.4,1.3,1.4C171.7,11.1,171.8,13.1,171.8,15.1C171.8,15.2,171.8,15.1,171.8,15.1z"/>
	<path d="M118.8,98.4c0,2.5,0,5,0,7.5c-2.5,0-5,0-7.4,0c0-2.5,0-5,0-7.5C113.9,98.4,116.4,98.4,118.8,98.4z"/>
	<path d="M254.9,162.6c0,3.7,0,3.7-3.6,3.7c-3.8,0-3.9,0-3.8-3.9c0-4.1-0.5-3.5,3.6-3.6C254.9,158.8,254.9,158.8,254.9,162.6z"/>
	<path fill="#D6D6D6" d="M224.7,173.9c0-2.1,0-4.2-0.1-6.3c0-1,0.4-1.4,1.4-1.4c2.1,0.1,4.2,0.1,6.3,0.1c0,0,0,0,0,0
		c0,2-0.1,3.9,0,5.9c0,1.2-0.3,1.8-1.6,1.7C228.7,173.8,226.7,173.9,224.7,173.9L224.7,173.9z"/>
	<path d="M126.5,75.8c2.5,0,4.9,0,7.4,0c0,2-0.1,3.9,0,5.9c0,1-0.2,1.5-1.3,1.4c-1.6-0.1-3.2-0.1-4.7,0c-1.1,0.1-1.3-0.4-1.3-1.4
		C126.6,79.7,126.6,77.7,126.5,75.8z"/>
	<path fill="#636363" d="M179.4,22.7c-2,0-4,0-5.9,0.1c-1.3,0.1-1.7-0.5-1.6-1.7c0.1-2,0-3.9,0-5.9c0,0,0,0,0,0c2,0,4.1,0,6.1,0
		c1.1,0,1.5,0.3,1.5,1.5C179.3,18.6,179.4,20.7,179.4,22.7C179.4,22.7,179.4,22.7,179.4,22.7z"/>
	<path d="M111.4,136.1c-2,0-4.1,0-6.1,0.1c-1.2,0.1-1.5-0.5-1.4-1.5c0-2,0-4.1,0-6.1c0-2.5,0.1-5,0.1-7.5c5,0,10,0,15,0l0,0
		c-0.2,2.5-0.2,5,0,7.5c0,0,0,0,0,0c-1.8,0-3.7,0.1-5.5,0c-1.5-0.1-2.1,0.3-2,1.9C111.5,132.3,111.3,134.2,111.4,136.1L111.4,136.1z
		"/>
	<path fill="#636363" d="M118.9,121c-5,0-10,0-15,0c0-2.1,0-4.2-0.1-6.3c-0.1-1.2,0.5-1.5,1.5-1.4c1.5,0.1,3,0,4.6,0
		c1,0,1.4-0.3,1.4-1.4c0-2-0.2-4.1,0.2-6.1c2.5,0,5,0,7.4,0C118.9,110.9,118.9,115.9,118.9,121z"/>
	<path d="M88.7,90.7c0-1.9,0.1-3.8,0.1-5.7c-0.1-1.4,0.5-1.8,1.8-1.8c4.4,0.1,8.7,0.1,13.1,0.1c0,2.1,0,4.1,0.1,6.2
		c0,1.1-0.3,1.3-1.3,1.3c-2.1-0.1-4.1,0-6.2,0C93.7,90.5,91.2,90.5,88.7,90.7L88.7,90.7z"/>
	<path fill="#636363" d="M88.7,90.7c2.5-0.2,5-0.2,7.5,0c0,2-0.1,4.1,0,6.1c0,1-0.4,1.4-1.4,1.4c-1.6-0.1-3.2-0.1-4.7,0
		c-1,0-1.4-0.4-1.4-1.4C88.7,94.8,88.7,92.8,88.7,90.7z"/>
	<path d="M111.4,181.5c5,0,10,0,15.1-0.1c2.5,0,5.1,0,7.6,0l0,0c0,2.5,0,5.1,0,7.6c-2.5,0-5,0-7.5,0c-2.5-0.2-5.1-0.2-7.6,0
		c-2.5,0-5,0-7.5,0C111.4,186.5,111.4,184,111.4,181.5z"/>
	<path fill="#D6D6D6" d="M126.5,189.1c2.5,0,5,0,7.5,0c0,2,0,4.1,0,6.1c0,1-0.4,1.4-1.4,1.4c-2-0.1-4.1,0-6.1,0
		C126.5,194,126.5,191.5,126.5,189.1z"/>
	<path fill="#D6D6D6" d="M217.2,189c0,2-0.2,3.9-0.1,5.9c0,1.2-0.3,1.6-1.5,1.6c-2-0.1-3.9,0-5.9,0.1c0-2,0-4-0.1-6
		c-0.1-1.2,0.4-1.6,1.6-1.6C213.2,189,215.2,189,217.2,189z"/>
	<path d="M126.4,151.2c-4.4,0-8.7-0.1-13.1,0c-1.5,0-2.1-0.4-2-2c0.1-4.4,0-8.7,0-13.1c0,0,0,0,0,0c2.5,0,5,0,7.6,0l0,0
		c0,2,0,4.1-0.1,6.1c-0.1,1.3,0.5,1.6,1.7,1.5c1.6-0.1,3.2,0,4.8,0c0.9,0,1.3,0.4,1.3,1.3C126.4,147.1,126.4,149.1,126.4,151.2
		L126.4,151.2z"/>
	<path d="M96.3,151.2c0-2,0.1-4.1,0.1-6.1c0-0.9,0.3-1.3,1.3-1.3c1.7,0.1,3.3,0,5,0c0.9,0,1.2,0.4,1.2,1.2c0,0.1,0,0.3,0,0.4
		c0.2,5.8,0.2,5.8-5.5,5.8C97.6,151.1,96.9,151.2,96.3,151.2L96.3,151.2z"/>
	<path fill="#D6D6D6" d="M88.6,158.7c0-2,0-4.1-0.1-6.1c-0.1-1.3,0.5-1.6,1.6-1.5c2,0.1,4.1,0,6.1,0.1l0,0c0,2.2-0.1,4.3,0,6.5
		c0,0.9-0.3,1.3-1.3,1.3C92.9,158.9,90.8,158.9,88.6,158.7C88.7,158.8,88.6,158.7,88.6,158.7z"/>
	<path fill="#636363" d="M126.4,151.2c0-2,0-4.1,0-6.1c0-0.9-0.3-1.3-1.3-1.3c-1.6,0-3.2,0-4.8,0c-1.1,0-1.7-0.3-1.7-1.5
		c0.1-2,0.1-4.1,0.1-6.1c4.5,0,9,0,13.5,0c1.3,0,1.7,0.4,1.7,1.7c0,4,0,7.9,0,11.9c0,1.2-0.4,1.6-1.6,1.6
		C130.5,151.2,128.5,151.2,126.4,151.2z"/>
	<path fill="#636363" d="M118.9,136.1c-2.5,0-5,0-7.6,0c0-1.9,0.1-3.8,0-5.7c-0.1-1.6,0.5-2,2-1.9c1.8,0.1,3.7,0,5.5,0
		C118.9,131,118.9,133.6,118.9,136.1z"/>
	<path fill="#636363" d="M118.9,128.5c-0.2-2.5-0.2-5,0-7.5c2,0,4,0.1,5.9,0.1c1.1,0,1.6,0.2,1.5,1.4c-0.2,1.9,0.8,4.3-0.3,5.6
		c-1.1,1.2-3.5,0.3-5.3,0.4C120.1,128.5,119.5,128.5,118.9,128.5z"/>
	<path fill="#636363" d="M149.2,158.8c0,2.1,0,4.1,0.1,6.2c0,1.1-0.3,1.6-1.4,1.5c-2-0.1-4.1-0.1-6.2-0.1c0-2,0-4.1,0-6.1
		c0-1.1,0.3-1.5,1.5-1.5C145.1,158.8,147.1,158.8,149.2,158.8z"/>
	<path fill="#636363" d="M141.6,166.4c0,2,0,4.1,0.1,6.1c0,1.2-0.4,1.5-1.5,1.4c-2-0.1-4.1,0-6.1,0c0-2,0.1-4.1,0-6.1
		c0-1.1,0.3-1.6,1.4-1.5C137.5,166.4,139.6,166.3,141.6,166.4z"/>
	<path fill="#636363" d="M134,181.5c-2.5,0-5.1,0-7.6,0c0-2,0.1-4,0-6c-0.1-1.3,0.4-1.6,1.6-1.5c2,0.1,4,0,6,0
		C134,176.4,134,178.9,134,181.5z"/>
</g>
<g>
	<path fill="#E73915" d="M126.4,156.7c12.3,0,22.4-10,22.4-22.4c0,12.3,10,22.4,22.4,22.4c-12.3,0-22.4,10-22.4,22.4
		C148.7,166.7,138.7,156.7,126.4,156.7z"/>
	<path fill="#0CD7F2" d="M153.6,185.8c5.8,0,10.4-4.7,10.4-10.4c0,5.8,4.7,10.4,10.4,10.4c-5.8,0-10.4,4.7-10.4,10.4
		C164,190.5,159.4,185.8,153.6,185.8z"/>
	<rect x="127.1" y="207.5" fill="#0CD7F2" width="136.6" height="133.4"/>
	<rect x="3.4" y="180.7" fill="#E73915" width="136.6" height="133.4"/>
	<g>
		<path d="M76.5,257.3L76.5,257.3c-2.5,0-4.5-2-4.5-4.5v-34.6c0-2.5,2-4.5,4.5-4.5h0c2.5,0,4.5,2,4.5,4.5v34.6
			C81,255.3,79,257.3,76.5,257.3z"/>
		<path d="M75.4,257.9h-9.5c-2.8,0-5-2.3-5-5v0c0-2.8,2.3-5,5-5h9.5c2.8,0,5,2.3,5,5v0C80.4,255.6,78.2,257.9,75.4,257.9z"/>
		<path d="M49.4,222.1L49.4,222.1c0,2.6-2.1,4.7-4.7,4.7h-8.4c-2.6,0-4.7-2.1-4.7-4.7v0c0-2.6,2.1-4.7,4.7-4.7h8.4
			C47.3,217.4,49.4,219.5,49.4,222.1z"/>
		<path d="M93.6,222.1L93.6,222.1c0-2.6,2.1-4.7,4.7-4.7h8.4c2.6,0,4.7,2.1,4.7,4.7v0c0,2.6-2.1,4.7-4.7,4.7h-8.4
			C95.7,226.9,93.6,224.7,93.6,222.1z"/>
		<path d="M56.8,277.8h29.1c2.3,0,4.2,1.9,4.2,4.2v0c0,2.3-1.9,4.2-4.2,4.2H56.8c-2.3,0-4.2-1.9-4.2-4.2v0
			C52.6,279.7,54.5,277.8,56.8,277.8z"/>
		<path d="M91.7,268.3h3.4c2.5,0,4.5,2,4.5,4.5l0,0c0,2.5-2,4.5-4.5,4.5h-3.4c-2.5,0-4.5-2-4.5-4.5l0,0
			C87.2,270.3,89.3,268.3,91.7,268.3z"/>
		<path d="M45.9,268.9h4.5c2.2,0,3.9,1.8,3.9,3.9l0,0c0,2.2-1.8,3.9-3.9,3.9h-4.5c-2.2,0-3.9-1.8-3.9-3.9l0,0
			C42,270.6,43.7,268.9,45.9,268.9z"/>
	</g>
	<g>
		<path d="M156,245h-2.2c-2,0-3.6-1.6-3.6-3.6l0,0c0-2,1.6-3.6,3.6-3.6h2.2c2,0,3.6,1.6,3.6,3.6l0,0C159.6,243.4,158,245,156,245z"
			/>
		<path d="M173.6,245h-2.2c-2,0-3.6-1.6-3.6-3.6l0,0c0-2,1.6-3.6,3.6-3.6h2.2c2,0,3.6,1.6,3.6,3.6l0,0
			C177.2,243.4,175.6,245,173.6,245z"/>
		<path d="M156,263.2h-2.2c-2,0-3.6-1.6-3.6-3.6v0c0-2,1.6-3.6,3.6-3.6h2.2c2,0,3.6,1.6,3.6,3.6v0C159.6,261.5,158,263.2,156,263.2z
			"/>
		<path d="M164.1,253.7h-2.2c-2,0-3.6-1.6-3.6-3.6v0c0-2,1.6-3.6,3.6-3.6h2.2c2,0,3.6,1.6,3.6,3.6v0
			C167.7,252,166.1,253.7,164.1,253.7z"/>
		<path d="M173.6,263.2h-2.2c-2,0-3.6-1.6-3.6-3.6v0c0-2,1.6-3.6,3.6-3.6h2.2c2,0,3.6,1.6,3.6,3.6v0
			C177.2,261.5,175.6,263.2,173.6,263.2z"/>
		<path d="M216.3,245h-2.2c-2,0-3.6-1.6-3.6-3.6l0,0c0-2,1.6-3.6,3.6-3.6h2.2c2,0,3.6,1.6,3.6,3.6l0,0
			C220,243.4,218.3,245,216.3,245z"/>
		<path d="M233.9,245h-2.2c-2,0-3.6-1.6-3.6-3.6l0,0c0-2,1.6-3.6,3.6-3.6h2.2c2,0,3.6,1.6,3.6,3.6l0,0
			C237.6,243.4,235.9,245,233.9,245z"/>
		<path d="M216.3,263.2h-2.2c-2,0-3.6-1.6-3.6-3.6v0c0-2,1.6-3.6,3.6-3.6h2.2c2,0,3.6,1.6,3.6,3.6v0
			C220,261.5,218.3,263.2,216.3,263.2z"/>
		<path d="M224.4,253.7h-2.2c-2,0-3.6-1.6-3.6-3.6v0c0-2,1.6-3.6,3.6-3.6h2.2c2,0,3.6,1.6,3.6,3.6v0
			C228.1,252,226.4,253.7,224.4,253.7z"/>
		<path d="M233.9,263.2h-2.2c-2,0-3.6-1.6-3.6-3.6v0c0-2,1.6-3.6,3.6-3.6h2.2c2,0,3.6,1.6,3.6,3.6v0
			C237.6,261.5,235.9,263.2,233.9,263.2z"/>
		<path d="M181.4,279.1h-2.8c-1.8,0-3.4-1.5-3.4-3.4l0,0c0-1.8,1.5-3.4,3.4-3.4h2.8c1.8,0,3.4,1.5,3.4,3.4l0,0
			C184.8,277.6,183.2,279.1,181.4,279.1z"/>
		<path d="M207.7,279.1h-2.8c-2.2,0-3.9-1.8-3.9-3.9l0,0c0-2.2,1.8-3.9,3.9-3.9h2.8c2.2,0,3.9,1.8,3.9,3.9l0,0
			C211.6,277.3,209.8,279.1,207.7,279.1z"/>
		<path d="M199,288.6h-11.2c-2.3,0-4.2-1.9-4.2-4.2l0,0c0-2.3,1.9-4.2,4.2-4.2H199c2.3,0,4.2,1.9,4.2,4.2l0,0
			C203.2,286.7,201.3,288.6,199,288.6z"/>
		<path d="M207.4,305.4h-29.1c-2.3,0-4.2-1.9-4.2-4.2l0,0c0-2.3,1.9-4.2,4.2-4.2h29.1c2.3,0,4.2,1.9,4.2,4.2l0,0
			C211.6,303.5,209.7,305.4,207.4,305.4z"/>
		<path d="M172.5,314.9h-3.4c-2.5,0-4.5-2-4.5-4.5l0,0c0-2.5,2-4.5,4.5-4.5h3.4c2.5,0,4.5,2,4.5,4.5l0,0
			C176.9,312.9,174.9,314.9,172.5,314.9z"/>
		<path d="M218.3,314.3h-4.5c-2.2,0-3.9-1.8-3.9-3.9l0,0c0-2.2,1.8-3.9,3.9-3.9h4.5c2.2,0,3.9,1.8,3.9,3.9l0,0
			C222.2,312.5,220.4,314.3,218.3,314.3z"/>
	</g>
</g>
</svg>
