<?xml version="1.0" encoding="utf-8"?>
<!-- Generator: Adobe Illustrator 18.0.0, SVG Export Plug-In . SVG Version: 6.00 Build 0)  -->
<!DOCTYPE svg PUBLIC "-//W3C//DTD SVG 1.1//EN" "http://www.w3.org/Graphics/SVG/1.1/DTD/svg11.dtd">
<svg version="1.1" id="Layer_1" xmlns="http://www.w3.org/2000/svg" xmlns:xlink="http://www.w3.org/1999/xlink" x="0px" y="0px"
	 viewBox="0 0 357.6 357.6" enable-background="new 0 0 357.6 357.6" xml:space="preserve">
<g>
	<rect x="0" y="0" fill="#F3F3F3" width="44.7" height="44.7"/>
	<rect x="44.7" y="0" width="44.7" height="44.7"/>
	<rect x="89.4" y="0" fill="#CDCDCD" width="44.7" height="44.7"/>
	<rect x="134.1" y="0" width="44.7" height="44.7"/>
	<rect x="178.8" y="0" fill="#C4C4C4" width="44.7" height="44.7"/>
	<rect x="223.5" y="0" width="44.7" height="44.7"/>
	<rect x="268.2" y="0" fill="#DDDDDD" width="44.7" height="44.7"/>
	<rect x="312.9" y="0" width="44.7" height="44.7"/>
	<rect x="0" y="44.7" width="44.7" height="44.7"/>
	<rect x="44.7" y="44.7" fill="#9E9E9E" width="44.7" height="44.7"/>
	<rect x="89.4" y="44.7" fill="#8E8E8E" width="44.7" height="44.7"/>
	<rect x="134.1" y="44.7" fill="#555555" width="44.7" height="44.7"/>
	<rect x="178.8" y="44.7" fill="#A9A9A9" width="44.7" height="44.7"/>
	<rect x="223.5" y="44.7" fill="#707070" width="44.7" height="44.7"/>
	<rect x="268.2" y="44.7" fill="#606060" width="44.7" height="44.7"/>
	<rect x="312.9" y="44.7" fill="#DDDDDD" width="44.7" height="44.7"/>
	<rect x="0" y="89.4" fill="#CDCDCD" width="44.7" height="44.7"/>
	<rect x="44.7" y="89.4" fill="#8E8E8E" width="44.7" height="44.7"/>
	<rect x="89.4" y="89.4" width="44.7" height="44.7"/>
	<rect x="134.1" y="89.4" fill="#FEFEFE" width="44.7" height="44.7"/>
	<rect x="178.8" y="89.4" width="44.7" height="44.7"/>
	<rect x="223.5" y="89.4" fill="#D7D7D7" width="44.7" height="44.7"/>
	<rect x="268.2" y="89.4" fill="#707070" width="44.7" height="44.7"/>
	<rect x="312.9" y="89.4" width="44.7" height="44.7"/>
	<rect x="0" y="134.1" fill="#3A3A3A" width="44.7" height="44.7"/>
	<rect x="44.7" y="134.1" fill="#555555" width="44.7" height="44.7"/>
	<rect x="89.4" y="134.1" fill="#FEFEFE" width="44.7" height="44.7"/>
	<rect x="134.1" y="134.1" width="44.7" height="44.7"/>
	<rect x="178.8" y="134.1" fill="#FEFEFE" width="44.7" height="44.7"/>
	<rect x="223.5" y="134.1" width="44.7" height="44.7"/>
	<rect x="268.2" y="134.1" fill="#A9A9A9" width="44.7" height="44.7"/>
	<rect x="312.9" y="134.1" fill="#C4C4C4" width="44.7" height="44.7"/>
	<rect x="0" y="178.8" fill="#C4C4C4" width="44.7" height="44.7"/>
	<rect x="44.7" y="178.8" fill="#A9A9A9" width="44.7" height="44.7"/>
	<rect x="89.4" y="178.8" width="44.7" height="44.7"/>
	<rect x="134.1" y="178.8" fill="#FEFEFE" width="44.7" height="44.7"/>
	<rect x="178.8" y="178.8" width="44.7" height="44.7"/>
	<rect x="223.5" y="178.8" fill="#FEFEFE" width="44.7" height="44.7"/>
	<rect x="268.2" y="178.8" fill="#555555" width="44.7" height="44.7"/>
	<rect x="312.9" y="178.8" fill="#3A3A3A" width="44.7" height="44.7"/>
	<rect x="0" y="223.5" width="44.7" height="44.7"/>
	<rect x="44.7" y="223.5" fill="#707070" width="44.7" height="44.7"/>
	<rect x="89.4" y="223.5" fill="#D7D7D7" width="44.7" height="44.7"/>
	<rect x="134.1" y="223.5" width="44.7" height="44.7"/>
	<rect x="178.8" y="223.5" fill="#FEFEFE" width="44.7" height="44.7"/>
	<rect x="223.5" y="223.5" width="44.7" height="44.7"/>
	<rect x="268.2" y="223.5" fill="#8E8E8E" width="44.7" height="44.7"/>
	<rect x="312.9" y="223.5" fill="#CDCDCD" width="44.7" height="44.7"/>
	<rect x="0" y="268.2" fill="#DDDDDD" width="44.7" height="44.7"/>
	<rect x="44.7" y="268.2" fill="#606060" width="44.7" height="44.7"/>
	<rect x="89.4" y="268.2" fill="#707070" width="44.7" height="44.7"/>
	<rect x="134.1" y="268.2" fill="#A9A9A9" width="44.7" height="44.7"/>
	<rect x="178.8" y="268.2" fill="#555555" width="44.7" height="44.7"/>
	<rect x="223.5" y="268.2" fill="#8E8E8E" width="44.7" height="44.7"/>
	<rect x="268.2" y="268.2" fill="#9E9E9E" width="44.7" height="44.7"/>
	<rect x="312.9" y="268.2" width="44.7" height="44.7"/>
	<rect x="0" y="312.9" width="44.7" height="44.7"/>
	<rect x="44.7" y="312.9" fill="#DDDDDD" width="44.7" height="44.7"/>
	<rect x="89.4" y="312.9" fill="#3A3A3A" width="44.7" height="44.7"/>
	<rect x="134.1" y="312.9" fill="#C4C4C4" width="44.7" height="44.7"/>
	<rect x="178.8" y="312.9" fill="#3A3A3A" width="44.7" height="44.7"/>
	<rect x="223.5" y="312.9" fill="#CDCDCD" width="44.7" height="44.7"/>
	<rect x="268.2" y="312.9" width="44.7" height="44.7"/>
	<rect x="312.9" y="312.9" fill="#F3F3F3" width="44.7" height="44.7"/>
</g>
</svg>
